<?xml version="1.0" encoding="UTF-8" standalone="no" ?>
<!DOCTYPE svg PUBLIC "-//W3C//DTD SVG 1.1//EN" "http://www.w3.org/Graphics/SVG/1.1/DTD/svg11.dtd">
<svg xmlns="http://www.w3.org/2000/svg" xmlns:xlink="http://www.w3.org/1999/xlink" version="1.1" width="1080" height="1080" viewBox="0 0 1080 1080" xml:space="preserve">
<desc>Created with Fabric.js 5.2.4</desc>
<defs>
</defs>
<g transform="matrix(1 0 0 1 540 540)" id="13113dd7-3c4a-4f1c-814f-d35b3c2704e2"  >
<rect style="stroke: none; stroke-width: 1; stroke-dasharray: none; stroke-linecap: butt; stroke-dashoffset: 0; stroke-linejoin: miter; stroke-miterlimit: 4; fill: rgb(255,255,255); fill-rule: nonzero; opacity: 1; visibility: hidden;" vector-effect="non-scaling-stroke"  x="-540" y="-540" rx="0" ry="0" width="1080" height="1080" />
</g>
<g transform="matrix(1 0 0 1 540 540)" id="84105082-db17-458a-a1ec-641c6c727067"  >
</g>
<g transform="matrix(3.55 0 0 3.55 536.9 542.02)"  >
<circle style="stroke: none; stroke-width: 1; stroke-dasharray: none; stroke-linecap: butt; stroke-dashoffset: 0; stroke-linejoin: miter; stroke-miterlimit: 4; fill: rgb(0,63,76); fill-rule: nonzero; opacity: 1;" vector-effect="non-scaling-stroke"  cx="0" cy="0" r="82" />
</g>
<g transform="matrix(4.68 0 0 4.68 536.9 545.42)"  >
<path style="stroke: none; stroke-width: 1; stroke-dasharray: none; stroke-linecap: butt; stroke-dashoffset: 0; stroke-linejoin: miter; stroke-miterlimit: 4; fill: rgb(255,255,255); fill-rule: nonzero; opacity: 1;" vector-effect="non-scaling-stroke"  transform=" translate(-50.53, -49.85)" d="M 65.07 28.772 L 54.181 33.282 L 54.181 24.830999999999996 C 58.346999999999994 23.985999999999997 61.486 20.301999999999996 61.486 15.885999999999996 C 61.486 10.843999999999996 57.397999999999996 6.756999999999996 52.357 6.756999999999996 C 47.315 6.756999999999996 43.228 10.843999999999996 43.228 15.885999999999996 C 43.228 20.301999999999996 46.364000000000004 23.984999999999996 50.531 24.830999999999996 L 50.531 34.794 L 36.02 40.806 L 6.713 28.666 L 6.713 80.708 L 36.02 92.851 L 65.07000000000001 80.815 L 94.35 92.943 L 94.35 40.9 L 65.07 28.772 z M 46.88 15.886 C 46.88 12.860999999999999 49.333000000000006 10.408 52.358000000000004 10.408 C 55.38100000000001 10.408 57.83500000000001 12.860999999999999 57.83500000000001 15.886 C 57.83500000000001 18.91 55.382000000000005 21.363 52.358000000000004 21.363 C 49.333 21.363 46.88 18.91 46.88 15.886 z M 90.699 87.479 L 65.07 76.861 L 36.02 88.897 L 10.364 78.271 L 10.364 34.13 L 36.019000000000005 44.757000000000005 L 50.531000000000006 38.746 L 50.531000000000006 54.225 L 54.181000000000004 54.225 L 54.181000000000004 37.234 L 65.07000000000001 32.724000000000004 L 90.69900000000001 43.34100000000001 L 90.69900000000001 87.479 z" stroke-linecap="round" />
</g>
<g transform="matrix(4.68 0 0 4.68 468.62 623.76)"  >
<polygon style="stroke: none; stroke-width: 1; stroke-dasharray: none; stroke-linecap: butt; stroke-dashoffset: 0; stroke-linejoin: miter; stroke-miterlimit: 4; fill: rgb(255,255,255); fill-rule: nonzero; opacity: 1;" vector-effect="non-scaling-stroke"  points="-1.83,-16.83 -1.83,16.04 0.09,16.83 1.83,16.11 1.83,-16.75 0.09,-16.03 " />
</g>
<g transform="matrix(4.68 0 0 4.68 605.18 572.55)"  >
<polygon style="stroke: none; stroke-width: 1; stroke-dasharray: none; stroke-linecap: butt; stroke-dashoffset: 0; stroke-linejoin: miter; stroke-miterlimit: 4; fill: rgb(255,255,255); fill-rule: nonzero; opacity: 1;" vector-effect="non-scaling-stroke"  points="-1.83,-16.11 -1.83,16.75 -0.09,16.03 1.82,16.83 1.82,-16.03 -0.09,-16.83 " />
</g>
<g transform="matrix(3.55 0 0 3.55 87.46 408.82)"  >
<path style="stroke: none; stroke-width: 1; stroke-dasharray: none; stroke-linecap: butt; stroke-dashoffset: 0; stroke-linejoin: miter; stroke-miterlimit: 4; fill: rgb(0,63,76); fill-rule: nonzero; opacity: 1;" vector-effect="non-scaling-stroke"  transform=" translate(-13.3, -102.45)" d="M 22.059 97.744 L 19.035 107.657 L 4.550000000000001 103.238 L 5.112000000000001 101.398 L 17.966 105.319 L 20.428 97.24600000000001 z" stroke-linecap="round" />
</g>
<g transform="matrix(3.55 0 0 3.55 105.35 355.04)"  >
<path style="stroke: none; stroke-width: 1; stroke-dasharray: none; stroke-linecap: butt; stroke-dashoffset: 0; stroke-linejoin: miter; stroke-miterlimit: 4; fill: rgb(0,63,76); fill-rule: nonzero; opacity: 1;" vector-effect="non-scaling-stroke"  transform=" translate(-18.35, -87.29)" d="M 22.486 92.459 L 25.759 84.77000000000001 L 27.328 85.43800000000002 L 23.301 94.89700000000002 L 9.367999999999999 88.96600000000002 L 13.320999999999998 79.68000000000002 L 14.888999999999998 80.34800000000003 L 11.689999999999998 87.86300000000003 L 16.202999999999996 89.78400000000003 L 18.983999999999995 83.25000000000003 L 20.455999999999996 83.87700000000002 L 17.674999999999997 90.41100000000003 z" stroke-linecap="round" />
</g>
<g transform="matrix(3.55 0 0 3.55 135.4 316.97)"  >
<path style="stroke: none; stroke-width: 1; stroke-dasharray: none; stroke-linecap: butt; stroke-dashoffset: 0; stroke-linejoin: miter; stroke-miterlimit: 4; fill: rgb(0,63,76); fill-rule: nonzero; opacity: 1;" vector-effect="non-scaling-stroke"  transform=" translate(-26.82, -76.56)" d="M 28.28 83.75 L 18.311 70.769 L 19.125 69.367 L 35.324 71.635 L 34.293 73.40700000000001 L 29.561 72.724 L 26.365 78.221 L 29.311 81.97800000000001 z M 25.267 77.135 L 28.053 72.343 L 20.632 71.187 z" stroke-linecap="round" />
</g>
<g transform="matrix(3.55 0 0 3.55 152.18 260.56)"  >
<path style="stroke: none; stroke-width: 1; stroke-dasharray: none; stroke-linecap: butt; stroke-dashoffset: 0; stroke-linejoin: miter; stroke-miterlimit: 4; fill: rgb(0,63,76); fill-rule: nonzero; opacity: 1;" vector-effect="non-scaling-stroke"  transform=" translate(-31.55, -60.66)" d="M 38.223 67.618 L 37.085 69.17 L 24.876 60.211 L 30.797 52.141999999999996 L 32.171 53.15 L 27.389 59.668 L 31.47 62.663 L 35.491 57.181999999999995 L 36.772999999999996 58.12199999999999 L 32.751 63.602999999999994 z" stroke-linecap="round" />
</g>
<g transform="matrix(3.55 0 0 3.55 193.65 232.52)"  >
<path style="stroke: none; stroke-width: 1; stroke-dasharray: none; stroke-linecap: butt; stroke-dashoffset: 0; stroke-linejoin: miter; stroke-miterlimit: 4; fill: rgb(0,63,76); fill-rule: nonzero; opacity: 1;" vector-effect="non-scaling-stroke"  transform=" translate(-43.24, -52.75)" d="M 52.323 50.926 L 45.328 58.573 L 34.154 48.352000000000004 L 35.453 46.932 L 45.369 56.003 L 51.065 49.775999999999996 z" stroke-linecap="round" />
</g>
<g transform="matrix(3.55 0 0 3.55 230.09 186.85)"  >
<path style="stroke: none; stroke-width: 1; stroke-dasharray: none; stroke-linecap: butt; stroke-dashoffset: 0; stroke-linejoin: miter; stroke-miterlimit: 4; fill: rgb(0,63,76); fill-rule: nonzero; opacity: 1;" vector-effect="non-scaling-stroke"  transform=" translate(-53.51, -39.88)" d="M 54.983 46.341 L 61.247 40.81 L 62.375 42.087 L 54.669 48.892 L 44.646 37.541000000000004 L 52.21 30.861000000000004 L 53.339 32.139 L 47.216 37.545 L 50.463 41.222 L 55.786 36.521 L 56.845 37.721000000000004 L 51.522 42.42100000000001 z" stroke-linecap="round" />
</g>
<g transform="matrix(3.55 0 0 3.55 262.85 150.52)"  >
<path style="stroke: none; stroke-width: 1; stroke-dasharray: none; stroke-linecap: butt; stroke-dashoffset: 0; stroke-linejoin: miter; stroke-miterlimit: 4; fill: rgb(0,63,76); fill-rule: nonzero; opacity: 1;" vector-effect="non-scaling-stroke"  transform=" translate(-62.75, -29.64)" d="M 65.667 21.378 L 66.637 22.78 L 62.345 25.749000000000002 L 69.992 36.801 L 68.409 37.896 L 60.763000000000005 26.844 L 56.471000000000004 29.814 L 55.501000000000005 28.412 z" stroke-linecap="round" />
</g>
<g transform="matrix(3.55 0 0 3.55 345.1 114.04)"  >
<path style="stroke: none; stroke-width: 1; stroke-dasharray: none; stroke-linecap: butt; stroke-dashoffset: 0; stroke-linejoin: miter; stroke-miterlimit: 4; fill: rgb(0,63,76); fill-rule: nonzero; opacity: 1;" vector-effect="non-scaling-stroke"  transform=" translate(-85.93, -19.35)" d="M 95.937 23.047 L 94.193 23.859 L 89.315 13.382000000000001 L 88.545 23.547 L 87.483 24.041 L 79.18900000000001 18.097 L 84.06700000000001 28.573 L 82.322 29.385 L 75.931 15.657000000000002 L 77.77 14.801000000000002 L 86.887 21.400000000000002 L 87.725 10.166000000000002 L 89.54599999999999 9.318000000000001 z" stroke-linecap="round" />
</g>
<g transform="matrix(3.55 0 0 3.55 413.89 94.5)"  >
<path style="stroke: none; stroke-width: 1; stroke-dasharray: none; stroke-linecap: butt; stroke-dashoffset: 0; stroke-linejoin: miter; stroke-miterlimit: 4; fill: rgb(0,63,76); fill-rule: nonzero; opacity: 1;" vector-effect="non-scaling-stroke"  transform=" translate(-105.33, -13.85)" d="M 98.602 22.214 L 100.295 5.9339999999999975 L 101.85000000000001 5.476999999999998 L 112.048 18.264999999999997 L 110.08200000000001 18.842 L 107.11600000000001 15.091999999999999 L 101.01500000000001 16.884 L 100.56900000000002 21.637 z M 100.965 15.34 L 106.283 13.778 L 101.69200000000001 7.8340000000000005 z" stroke-linecap="round" />
</g>
<g transform="matrix(3.55 0 0 3.55 459.52 79.64)"  >
<path style="stroke: none; stroke-width: 1; stroke-dasharray: none; stroke-linecap: butt; stroke-dashoffset: 0; stroke-linejoin: miter; stroke-miterlimit: 4; fill: rgb(0,63,76); fill-rule: nonzero; opacity: 1;" vector-effect="non-scaling-stroke"  transform=" translate(-118.19, -9.66)" d="M 116.899 17.361 L 115.004 17.697 L 112.357 2.786999999999999 L 118.576 1.682999999999999 C 119.235 1.565999999999999 119.86 1.5969999999999989 120.451 1.774999999999999 C 121.04899999999999 1.951999999999999 121.591 2.230999999999999 122.077 2.611999999999999 C 122.562 2.9929999999999994 122.969 3.448999999999999 123.29599999999999 3.9779999999999993 C 123.61599999999999 4.501999999999999 123.82799999999999 5.058999999999999 123.93299999999999 5.6499999999999995 L 123.93299999999999 5.6499999999999995 C 124.077 6.459999999999999 124.032 7.265 123.79799999999999 8.062999999999999 C 123.56499999999998 8.861999999999998 123.16299999999998 9.549999999999999 122.59299999999999 10.126 C 122.014 10.696 121.28199999999998 11.059999999999999 120.39599999999999 11.216999999999999 L 120.39599999999999 11.216999999999999 L 115.94799999999998 12.005999999999998 z M 114.55 4.129 L 115.64999999999999 10.328 L 119.99499999999999 9.556 C 120.50999999999999 9.465 120.93799999999999 9.242999999999999 121.27999999999999 8.892999999999999 C 121.61399999999999 8.543 121.84599999999999 8.113 121.97399999999999 7.600999999999999 C 122.10999999999999 7.087999999999999 122.127 6.550999999999999 122.02799999999999 5.9879999999999995 L 122.02799999999999 5.9879999999999995 C 121.92299999999999 5.398 121.702 4.8919999999999995 121.365 4.47 C 121.02799999999999 4.048 120.633 3.7399999999999998 120.181 3.5429999999999997 C 119.728 3.3469999999999995 119.258 3.2929999999999997 118.771 3.3789999999999996 L 118.771 3.3789999999999996 z" stroke-linecap="round" />
</g>
<g transform="matrix(3.55 0 0 3.55 536.21 72.35)"  >
<path style="stroke: none; stroke-width: 1; stroke-dasharray: none; stroke-linecap: butt; stroke-dashoffset: 0; stroke-linejoin: miter; stroke-miterlimit: 4; fill: rgb(0,63,76); fill-rule: nonzero; opacity: 1;" vector-effect="non-scaling-stroke"  transform=" translate(-139.81, -7.6)" d="M 132.779 0.104 L 134.807 0.089 L 139.911 12.790000000000001 L 144.816 0.015000000000000568 L 146.834 5.689893001203927e-16 L 140.808 15.189 L 139.06099999999998 15.202 z" stroke-linecap="round" />
</g>
<g transform="matrix(3.55 0 0 3.55 578.19 73.34)"  >
<path style="stroke: none; stroke-width: 1; stroke-dasharray: none; stroke-linecap: butt; stroke-dashoffset: 0; stroke-linejoin: miter; stroke-miterlimit: 4; fill: rgb(0,63,76); fill-rule: nonzero; opacity: 1;" vector-effect="non-scaling-stroke"  transform=" translate(-151.64, -7.88)" d="M 152.08 15.498 L 150.16000000000003 15.366 L 151.199 0.2579999999999991 L 153.119 0.3899999999999991 z" stroke-linecap="round" />
</g>
<g transform="matrix(3.55 0 0 3.55 615.77 78.87)"  >
<path style="stroke: none; stroke-width: 1; stroke-dasharray: none; stroke-linecap: butt; stroke-dashoffset: 0; stroke-linejoin: miter; stroke-miterlimit: 4; fill: rgb(0,63,76); fill-rule: nonzero; opacity: 1;" vector-effect="non-scaling-stroke"  transform=" translate(-162.23, -9.44)" d="M 168.573 4.311 L 167.447 5.708 C 167.30700000000002 5.481 167.11 5.255 166.858 5.031000000000001 C 166.613 4.801 166.326 4.585000000000001 165.998 4.383000000000001 C 165.67 4.182000000000001 165.308 4.000000000000001 164.91 3.8370000000000006 C 164.505 3.6800000000000006 164.078 3.5650000000000004 163.631 3.4930000000000008 L 163.631 3.4930000000000008 C 162.482 3.3080000000000007 161.596 3.387000000000001 160.976 3.7330000000000005 C 160.362 4.079000000000001 159.994 4.634 159.87 5.398000000000001 L 159.87 5.398000000000001 C 159.785 5.928000000000001 159.858 6.371 160.091 6.726000000000001 C 160.316 7.080000000000001 160.70600000000002 7.401000000000001 161.26000000000002 7.687000000000001 C 161.81300000000002 7.981000000000001 162.52 8.307 163.38000000000002 8.665000000000001 L 163.38000000000002 8.665000000000001 C 164.38400000000001 9.053 165.23800000000003 9.47 165.943 9.915000000000001 C 166.64800000000002 10.361 167.16400000000002 10.885000000000002 167.49 11.488000000000001 C 167.80800000000002 12.097000000000001 167.89600000000002 12.849000000000002 167.751 13.745000000000001 L 167.751 13.745000000000001 C 167.636 14.461 167.397 15.062000000000001 167.037 15.547 C 166.677 16.026 166.225 16.398 165.681 16.663 C 165.13000000000002 16.927 164.514 17.089 163.834 17.149 C 163.148 17.201 162.419 17.165 161.648 17.04 L 161.648 17.04 C 160.884 16.916999999999998 160.153 16.718 159.456 16.442999999999998 C 158.76 16.160999999999998 158.11599999999999 15.816999999999998 157.52499999999998 15.410999999999998 C 156.92799999999997 14.996999999999998 156.385 14.509999999999998 155.896 13.951999999999998 L 155.896 13.951999999999998 L 157.063 12.497999999999998 C 157.244 12.773999999999997 157.49499999999998 13.057999999999998 157.815 13.349999999999998 C 158.136 13.634999999999998 158.511 13.913999999999998 158.94 14.187999999999997 C 159.363 14.453999999999997 159.833 14.691999999999997 160.351 14.902999999999997 C 160.862 15.104999999999997 161.4 15.251999999999997 161.964 15.342999999999996 L 161.964 15.342999999999996 C 163.031 15.514999999999997 163.888 15.454999999999997 164.535 15.164999999999996 C 165.189 14.874999999999996 165.576 14.357999999999995 165.696 13.613999999999995 L 165.696 13.613999999999995 C 165.787 13.049999999999995 165.694 12.571999999999996 165.419 12.181999999999995 C 165.143 11.790999999999995 164.699 11.433999999999996 164.08700000000002 11.108999999999995 C 163.477 10.777999999999995 162.729 10.423999999999994 161.84300000000002 10.047999999999995 L 161.84300000000002 10.047999999999995 C 160.871 9.636999999999995 160.06500000000003 9.224999999999994 159.42600000000002 8.810999999999995 C 158.787 8.396999999999995 158.334 7.917999999999995 158.06900000000002 7.373999999999994 C 157.805 6.822999999999994 157.73600000000002 6.154999999999994 157.86200000000002 5.369999999999994 L 157.86200000000002 5.369999999999994 C 158.01600000000002 4.412999999999994 158.38000000000002 3.6459999999999937 158.95400000000004 3.067999999999994 C 159.52200000000005 2.481999999999994 160.23900000000003 2.0849999999999937 161.10500000000005 1.8789999999999938 C 161.97200000000004 1.6729999999999938 162.91800000000003 1.6519999999999937 163.94400000000005 1.8169999999999937 L 163.94400000000005 1.8169999999999937 C 164.61900000000006 1.9259999999999937 165.23700000000005 2.095999999999994 165.80000000000004 2.3279999999999936 C 166.35500000000005 2.5659999999999936 166.86700000000005 2.8499999999999934 167.33600000000004 3.1799999999999935 C 167.79700000000005 3.5159999999999934 168.21000000000004 3.8929999999999936 168.57300000000004 4.310999999999994 z" stroke-linecap="round" />
</g>
<g transform="matrix(3.55 0 0 3.55 676.39 89.34)"  >
<path style="stroke: none; stroke-width: 1; stroke-dasharray: none; stroke-linecap: butt; stroke-dashoffset: 0; stroke-linejoin: miter; stroke-miterlimit: 4; fill: rgb(0,63,76); fill-rule: nonzero; opacity: 1;" vector-effect="non-scaling-stroke"  transform=" translate(-179.32, -12.39)" d="M 176.446 20.45 L 176.446 20.45 C 175.285 20.122 174.363 19.644 173.678 19.016 C 173 18.389999999999997 172.52 17.663999999999998 172.239 16.837999999999997 C 171.951 16.009999999999998 171.824 15.126999999999997 171.858 14.187999999999997 C 171.883 13.252999999999997 172.02700000000002 12.319999999999997 172.291 11.386999999999997 L 172.291 11.386999999999997 L 174.37199999999999 4.019999999999997 L 176.214 4.539999999999997 L 174.132 11.906999999999996 C 173.931 12.617999999999997 173.809 13.332999999999997 173.76500000000001 14.052999999999997 C 173.71400000000003 14.769999999999998 173.77800000000002 15.443999999999997 173.955 16.072999999999997 C 174.13400000000001 16.695999999999998 174.461 17.244999999999997 174.935 17.719999999999995 C 175.403 18.192999999999994 176.056 18.547999999999995 176.895 18.783999999999995 L 176.895 18.783999999999995 C 177.74 19.022999999999996 178.49 19.060999999999996 179.145 18.897999999999996 C 179.793 18.732999999999997 180.357 18.428999999999995 180.83700000000002 17.984999999999996 C 181.31900000000002 17.533999999999995 181.729 16.994999999999997 182.067 16.365999999999996 C 182.39700000000002 15.734999999999996 182.661 15.069999999999997 182.858 14.371999999999996 L 182.858 14.371999999999996 L 184.939 7.004999999999996 L 186.791 7.528999999999996 L 184.71 14.895999999999997 C 184.431 15.881999999999998 184.053 16.785999999999998 183.574 17.606999999999996 C 183.098 18.420999999999996 182.52 19.094999999999995 181.841 19.626999999999995 C 181.162 20.159999999999997 180.371 20.508999999999997 179.469 20.673999999999996 C 178.57399999999998 20.840999999999998 177.566 20.766999999999996 176.446 20.450999999999997 z" stroke-linecap="round" />
</g>
<g transform="matrix(3.55 0 0 3.55 718.41 116.24)"  >
<path style="stroke: none; stroke-width: 1; stroke-dasharray: none; stroke-linecap: butt; stroke-dashoffset: 0; stroke-linejoin: miter; stroke-miterlimit: 4; fill: rgb(0,63,76); fill-rule: nonzero; opacity: 1;" vector-effect="non-scaling-stroke"  transform=" translate(-191.17, -19.97)" d="M 184.56 22.894 L 196.288 11.474999999999998 L 197.775 12.119999999999997 L 197.416 28.471999999999998 L 195.536 27.656 L 195.66 22.877 L 189.827 20.345 L 186.441 23.71 z M 190.778 19.128 L 195.862 21.334 L 196.144 13.829 z" stroke-linecap="round" />
</g>
<g transform="matrix(3.55 0 0 3.55 767.44 137.31)"  >
<path style="stroke: none; stroke-width: 1; stroke-dasharray: none; stroke-linecap: butt; stroke-dashoffset: 0; stroke-linejoin: miter; stroke-miterlimit: 4; fill: rgb(0,63,76); fill-rule: nonzero; opacity: 1;" vector-effect="non-scaling-stroke"  transform=" translate(-204.99, -25.91)" d="M 209.071 35.056 L 200.063 29.932 L 207.54999999999998 16.769 L 209.22299999999998 17.720999999999997 L 202.57799999999997 29.401999999999994 L 209.914 33.574999999999996 z" stroke-linecap="round" />
</g>
<g transform="matrix(3.55 0 0 3.55 809.26 156.06)"  >
<path style="stroke: none; stroke-width: 1; stroke-dasharray: none; stroke-linecap: butt; stroke-dashoffset: 0; stroke-linejoin: miter; stroke-miterlimit: 4; fill: rgb(0,63,76); fill-rule: nonzero; opacity: 1;" vector-effect="non-scaling-stroke"  transform=" translate(-216.78, -31.2)" d="M 213.352 38.02 L 211.755 36.946000000000005 L 220.201 24.377000000000002 L 221.799 25.450000000000003 z" stroke-linecap="round" />
</g>
<g transform="matrix(3.55 0 0 3.55 839.59 180.83)"  >
<path style="stroke: none; stroke-width: 1; stroke-dasharray: none; stroke-linecap: butt; stroke-dashoffset: 0; stroke-linejoin: miter; stroke-miterlimit: 4; fill: rgb(0,63,76); fill-rule: nonzero; opacity: 1;" vector-effect="non-scaling-stroke"  transform=" translate(-225.33, -38.18)" d="M 233.228 36.568 L 231.555 37.216 C 231.547 36.949 231.49 36.655 231.383 36.334 C 231.285 36.012 231.145 35.682 230.96200000000002 35.344 C 230.77900000000002 35.006 230.555 34.667 230.29200000000003 34.328 C 230.01900000000003 33.989000000000004 229.70700000000002 33.677 229.35600000000002 33.391000000000005 L 229.35600000000002 33.391000000000005 C 228.45300000000003 32.656000000000006 227.64600000000002 32.28300000000001 226.93600000000004 32.27100000000001 C 226.23200000000003 32.26400000000001 225.63500000000005 32.56100000000001 225.14700000000005 33.162000000000006 L 225.14700000000005 33.162000000000006 C 224.80800000000005 33.578 224.65100000000004 33.99900000000001 224.67400000000004 34.422000000000004 C 224.69200000000004 34.841 224.87000000000003 35.31400000000001 225.20600000000005 35.839000000000006 C 225.53800000000004 36.370000000000005 225.98800000000006 37.005 226.55500000000004 37.745000000000005 L 226.55500000000004 37.745000000000005 C 227.23100000000002 38.58200000000001 227.76300000000003 39.370000000000005 228.15100000000004 40.108000000000004 C 228.53900000000004 40.846000000000004 228.72400000000005 41.55800000000001 228.70500000000004 42.24400000000001 C 228.67600000000004 42.931000000000004 228.37600000000003 43.626000000000005 227.80400000000003 44.32900000000001 L 227.80400000000003 44.32900000000001 C 227.34600000000003 44.891000000000005 226.84000000000003 45.293000000000006 226.28500000000003 45.534000000000006 C 225.73400000000004 45.769000000000005 225.15700000000004 45.86600000000001 224.55300000000003 45.82300000000001 C 223.94400000000002 45.77700000000001 223.32900000000004 45.60900000000001 222.71000000000004 45.321000000000005 C 222.09000000000003 45.023 221.47700000000003 44.62800000000001 220.87000000000003 44.135000000000005 L 220.87000000000003 44.135000000000005 C 220.27000000000004 43.647000000000006 219.73600000000005 43.109 219.27000000000004 42.523 C 218.80800000000005 41.931000000000004 218.42200000000003 41.312000000000005 218.11200000000005 40.665000000000006 C 217.80200000000005 40.00800000000001 217.57400000000004 39.315000000000005 217.43000000000006 38.586000000000006 L 217.43000000000006 38.586000000000006 L 219.16700000000006 37.910000000000004 C 219.18600000000006 38.24 219.26100000000005 38.611000000000004 219.39300000000006 39.024 C 219.52900000000005 39.431 219.71400000000006 39.861000000000004 219.95000000000005 40.312 C 220.18400000000005 40.754 220.47200000000004 41.195 220.81400000000005 41.635999999999996 C 221.15600000000006 42.06699999999999 221.54800000000006 42.462999999999994 221.99200000000005 42.82299999999999 L 221.99200000000005 42.82299999999999 C 222.83000000000004 43.504999999999995 223.60300000000004 43.88199999999999 224.30800000000005 43.952999999999996 C 225.02000000000004 44.028999999999996 225.61300000000006 43.773999999999994 226.08900000000006 43.19 L 226.08900000000006 43.19 C 226.45000000000005 42.747 226.60800000000006 42.287 226.56400000000005 41.809999999999995 C 226.52000000000004 41.333999999999996 226.31400000000005 40.80199999999999 225.94600000000005 40.215999999999994 C 225.58300000000006 39.623999999999995 225.11100000000005 38.943999999999996 224.53200000000007 38.175999999999995 L 224.53200000000007 38.175999999999995 C 223.89500000000007 37.334999999999994 223.40300000000008 36.574999999999996 223.05700000000007 35.89699999999999 C 222.71000000000006 35.218999999999994 222.55700000000007 34.57799999999999 222.59900000000007 33.97399999999999 C 222.64500000000007 33.36499999999999 222.91900000000007 32.75199999999999 223.42100000000008 32.13499999999999 L 223.42100000000008 32.13499999999999 C 224.03300000000007 31.382999999999992 224.73100000000008 30.89999999999999 225.51700000000008 30.68499999999999 C 226.30200000000008 30.46099999999999 227.1210000000001 30.47499999999999 227.97400000000007 30.729999999999993 C 228.8280000000001 30.983999999999995 229.65800000000007 31.438999999999993 230.46400000000008 32.09499999999999 L 230.46400000000008 32.09499999999999 C 230.99400000000009 32.52599999999999 231.44500000000008 32.98299999999999 231.8160000000001 33.46499999999999 C 232.17800000000008 33.947999999999986 232.48000000000008 34.44999999999999 232.7220000000001 34.96999999999999 C 232.9540000000001 35.49099999999999 233.1230000000001 36.023999999999994 233.2280000000001 36.56799999999999 z" stroke-linecap="round" />
</g>
<g transform="matrix(3.55 0 0 3.55 872.18 224.74)"  >
<path style="stroke: none; stroke-width: 1; stroke-dasharray: none; stroke-linecap: butt; stroke-dashoffset: 0; stroke-linejoin: miter; stroke-miterlimit: 4; fill: rgb(0,63,76); fill-rule: nonzero; opacity: 1;" vector-effect="non-scaling-stroke"  transform=" translate(-234.51, -50.56)" d="M 226.353 48.573 L 241.547 42.486000000000004 L 242.676 43.649 L 236.112 58.63 L 234.684 57.159000000000006 L 236.62199999999999 52.788000000000004 L 232.194 48.224000000000004 L 227.78099999999998 50.044000000000004 z M 233.536 47.461 L 237.39600000000002 51.439 L 240.51700000000002 44.608 z" stroke-linecap="round" />
</g>
<g transform="matrix(3.55 0 0 3.55 918.53 247.27)"  >
<path style="stroke: none; stroke-width: 1; stroke-dasharray: none; stroke-linecap: butt; stroke-dashoffset: 0; stroke-linejoin: miter; stroke-miterlimit: 4; fill: rgb(0,63,76); fill-rule: nonzero; opacity: 1;" vector-effect="non-scaling-stroke"  transform=" translate(-247.58, -56.91)" d="M 255.742 59.148 L 254.40099999999998 60.201 L 251.17799999999997 56.096000000000004 L 240.60899999999998 64.39500000000001 L 239.42 62.88200000000001 L 249.98999999999998 54.58300000000001 L 246.76699999999997 50.47800000000001 L 248.10799999999998 49.42500000000001 z" stroke-linecap="round" />
</g>
<g transform="matrix(3.55 0 0 3.55 936.09 286.12)"  >
<path style="stroke: none; stroke-width: 1; stroke-dasharray: none; stroke-linecap: butt; stroke-dashoffset: 0; stroke-linejoin: miter; stroke-miterlimit: 4; fill: rgb(0,63,76); fill-rule: nonzero; opacity: 1;" vector-effect="non-scaling-stroke"  transform=" translate(-252.53, -67.86)" d="M 246.794 72.895 L 245.71800000000002 71.3 L 258.269 62.827999999999996 L 259.346 64.423 z" stroke-linecap="round" />
</g>
<g transform="matrix(3.55 0 0 3.55 958.08 324.83)"  >
<path style="stroke: none; stroke-width: 1; stroke-dasharray: none; stroke-linecap: butt; stroke-dashoffset: 0; stroke-linejoin: miter; stroke-miterlimit: 4; fill: rgb(0,63,76); fill-rule: nonzero; opacity: 1;" vector-effect="non-scaling-stroke"  transform=" translate(-258.73, -78.77)" d="M 251.969 82.383 L 251.969 82.383 C 251.464 81.443 251.19299999999998 80.48899999999999 251.156 79.52 C 251.122 78.557 251.27700000000002 77.62299999999999 251.621 76.71799999999999 C 251.966 75.81299999999999 252.46300000000002 74.99199999999999 253.11200000000002 74.255 C 253.758 73.52799999999999 254.508 72.935 255.36300000000003 72.47699999999999 L 255.36300000000003 72.47699999999999 C 256.254 71.999 257.187 71.70299999999999 258.163 71.591 C 259.14500000000004 71.475 260.105 71.52999999999999 261.041 71.755 C 261.98 71.987 262.841 72.387 263.621 72.957 C 264.399 73.52099999999999 265.03 74.25399999999999 265.515 75.157 L 265.515 75.157 C 266.02 76.097 266.28299999999996 77.051 266.305 78.021 C 266.327 78.99 266.161 79.926 265.806 80.82900000000001 C 265.452 81.73100000000001 264.953 82.549 264.31 83.28200000000001 C 263.673 84.01200000000001 262.934 84.60300000000001 262.093 85.055 L 262.093 85.055 C 261.202 85.533 260.271 85.83200000000001 259.297 85.95 C 258.31800000000004 86.072 257.35900000000004 86.017 256.42 85.786 C 255.48100000000002 85.554 254.62500000000003 85.155 253.853 84.58800000000001 C 253.08200000000002 84.02100000000002 252.453 83.286 251.96900000000002 82.38300000000001 z M 256.278 74.182 L 256.278 74.182 C 255.60200000000003 74.545 255.008 75.007 254.49300000000002 75.56700000000001 C 253.97600000000003 76.12200000000001 253.58 76.73400000000001 253.30700000000002 77.403 C 253.03600000000003 78.063 252.90800000000002 78.753 252.92300000000003 79.473 C 252.93800000000002 80.193 253.13000000000002 80.897 253.49900000000002 81.585 L 253.49900000000002 81.585 C 253.88200000000003 82.29799999999999 254.37500000000003 82.856 254.98000000000002 83.259 C 255.58100000000002 83.656 256.238 83.921 256.949 84.054 C 257.664 84.177 258.391 84.174 259.129 84.046 C 259.86400000000003 83.912 260.55100000000004 83.674 261.19100000000003 83.331 L 261.19100000000003 83.331 C 261.867 82.968 262.46000000000004 82.51100000000001 262.971 81.96000000000001 C 263.479 81.402 263.873 80.787 264.152 80.11500000000001 C 264.42199999999997 79.44000000000001 264.55 78.75000000000001 264.537 78.04500000000002 C 264.519 77.33400000000002 264.32899999999995 76.64100000000002 263.96599999999995 75.96500000000002 L 263.96599999999995 75.96500000000002 C 263.5799999999999 75.24600000000002 263.09 74.68700000000001 262.49499999999995 74.28600000000002 C 261.89699999999993 73.87900000000002 261.23999999999995 73.61400000000002 260.5249999999999 73.49200000000002 C 259.81299999999993 73.36000000000001 259.0909999999999 73.35600000000002 258.35799999999995 73.48000000000002 C 257.62199999999996 73.59800000000001 256.929 73.83200000000002 256.27799999999996 74.18200000000002 z" stroke-linecap="round" />
</g>
<g transform="matrix(3.55 0 0 3.55 984.23 383.1)"  >
<path style="stroke: none; stroke-width: 1; stroke-dasharray: none; stroke-linecap: butt; stroke-dashoffset: 0; stroke-linejoin: miter; stroke-miterlimit: 4; fill: rgb(0,63,76); fill-rule: nonzero; opacity: 1;" vector-effect="non-scaling-stroke"  transform=" translate(-266.1, -95.2)" d="M 260.701 102.251 L 268.273 89.581 L 257.44 93.723 L 256.753 91.925 L 270.89799999999997 86.517 L 271.47599999999994 88.03099999999999 L 263.72399999999993 100.904 L 274.76199999999994 96.684 L 275.44999999999993 98.481 L 261.32499999999993 103.88199999999999 z" stroke-linecap="round" />
</g>
<g transform="matrix(3.55 0 0 3.55 96.7 692.41)"  >
<path style="stroke: none; stroke-width: 1; stroke-dasharray: none; stroke-linecap: butt; stroke-dashoffset: 0; stroke-linejoin: miter; stroke-miterlimit: 4; fill: rgb(0,63,76); fill-rule: nonzero; opacity: 1;" vector-effect="non-scaling-stroke"  transform=" translate(-15.91, -182.39)" d="M 11.41 189.56 L 8.386 179.647 L 22.871 175.22899999999998 L 23.432 177.07 L 10.578 180.99099999999999 L 13.041 189.063 z" stroke-linecap="round" />
</g>
<g transform="matrix(3.55 0 0 3.55 118.31 738.13)"  >
<path style="stroke: none; stroke-width: 1; stroke-dasharray: none; stroke-linecap: butt; stroke-dashoffset: 0; stroke-linejoin: miter; stroke-miterlimit: 4; fill: rgb(0,63,76); fill-rule: nonzero; opacity: 1;" vector-effect="non-scaling-stroke"  transform=" translate(-22, -195.28)" d="M 15.38 194.622 L 18.653000000000002 202.311 L 17.084000000000003 202.978 L 13.058000000000003 193.52 L 26.991000000000003 187.58800000000002 L 30.944000000000003 196.87400000000002 L 29.375000000000004 197.54200000000003 L 26.176000000000002 190.02600000000004 L 21.663000000000004 191.94800000000004 L 24.445000000000004 198.48100000000002 L 22.972000000000005 199.10800000000003 L 20.191000000000006 192.57400000000004 z" stroke-linecap="round" />
</g>
<g transform="matrix(3.55 0 0 3.55 136.65 793.32)"  >
<path style="stroke: none; stroke-width: 1; stroke-dasharray: none; stroke-linecap: butt; stroke-dashoffset: 0; stroke-linejoin: miter; stroke-miterlimit: 4; fill: rgb(0,63,76); fill-rule: nonzero; opacity: 1;" vector-effect="non-scaling-stroke"  transform=" translate(-27.17, -210.84)" d="M 18.656 205.901 L 34.87 203.661 L 35.684 205.062 L 25.698999999999998 218.01600000000002 L 24.668999999999997 216.24400000000003 L 27.602999999999998 212.47000000000003 L 24.407999999999998 206.973 L 19.685999999999996 207.673 z M 25.895 206.555 L 28.681 211.347 L 33.358000000000004 205.471 z" stroke-linecap="round" />
</g>
<g transform="matrix(3.55 0 0 3.55 172.13 820.5)"  >
<path style="stroke: none; stroke-width: 1; stroke-dasharray: none; stroke-linecap: butt; stroke-dashoffset: 0; stroke-linejoin: miter; stroke-miterlimit: 4; fill: rgb(0,63,76); fill-rule: nonzero; opacity: 1;" vector-effect="non-scaling-stroke"  transform=" translate(-37.17, -218.5)" d="M 29.248 223.024 L 28.109 221.472 L 40.318 212.514 L 46.239 220.583 L 44.864999999999995 221.591 L 40.081999999999994 215.074 L 36.00099999999999 218.068 L 40.02299999999999 223.549 L 38.740999999999985 224.489 L 34.719999999999985 219.00900000000001 z" stroke-linecap="round" />
</g>
<g transform="matrix(3.55 0 0 3.55 194.04 867.36)"  >
<path style="stroke: none; stroke-width: 1; stroke-dasharray: none; stroke-linecap: butt; stroke-dashoffset: 0; stroke-linejoin: miter; stroke-miterlimit: 4; fill: rgb(0,63,76); fill-rule: nonzero; opacity: 1;" vector-effect="non-scaling-stroke"  transform=" translate(-43.35, -231.71)" d="M 44.108 240.644 L 37.113 232.997 L 48.287 222.776 L 49.586 224.19500000000002 L 39.67 233.26600000000002 L 45.366 239.49300000000002 z" stroke-linecap="round" />
</g>
<g transform="matrix(3.55 0 0 3.55 239.25 901.15)"  >
<path style="stroke: none; stroke-width: 1; stroke-dasharray: none; stroke-linecap: butt; stroke-dashoffset: 0; stroke-linejoin: miter; stroke-miterlimit: 4; fill: rgb(0,63,76); fill-rule: nonzero; opacity: 1;" vector-effect="non-scaling-stroke"  transform=" translate(-56.09, -241.24)" d="M 49.871 243.505 L 56.134 249.036 L 55.006 250.314 L 47.3 243.509 L 57.324 232.158 L 64.888 238.838 L 63.760000000000005 240.11599999999999 L 57.638000000000005 234.70899999999997 L 54.391000000000005 238.38599999999997 L 59.714000000000006 243.08599999999996 L 58.65500000000001 244.28599999999994 L 53.33200000000001 239.58499999999995 z" stroke-linecap="round" />
</g>
<g transform="matrix(3.55 0 0 3.55 286.17 925.68)"  >
<path style="stroke: none; stroke-width: 1; stroke-dasharray: none; stroke-linecap: butt; stroke-dashoffset: 0; stroke-linejoin: miter; stroke-miterlimit: 4; fill: rgb(0,63,76); fill-rule: nonzero; opacity: 1;" vector-effect="non-scaling-stroke"  transform=" translate(-69.32, -248.15)" d="M 76.565 246.926 L 75.595 248.32799999999997 L 71.304 245.35899999999998 L 63.657000000000004 256.40999999999997 L 62.075 255.31499999999997 L 69.721 244.26399999999998 L 65.43 241.295 L 66.4 239.893 z" stroke-linecap="round" />
</g>
<g transform="matrix(3.55 0 0 3.55 351.11 971.5)"  >
<path style="stroke: none; stroke-width: 1; stroke-dasharray: none; stroke-linecap: butt; stroke-dashoffset: 0; stroke-linejoin: miter; stroke-miterlimit: 4; fill: rgb(0,63,76); fill-rule: nonzero; opacity: 1;" vector-effect="non-scaling-stroke"  transform=" translate(-87.63, -261.07)" d="M 91.238 271.102 L 89.494 270.28999999999996 L 94.371 259.813 L 86.097 265.767 L 85.035 265.272 L 84.246 255.099 L 79.368 265.57599999999996 L 77.624 264.763 L 84.015 251.03499999999997 L 85.854 251.89099999999996 L 86.673 263.116 L 95.809 256.526 L 97.63 257.373 z" stroke-linecap="round" />
</g>
<g transform="matrix(3.55 0 0 3.55 402.76 996.48)"  >
<path style="stroke: none; stroke-width: 1; stroke-dasharray: none; stroke-linecap: butt; stroke-dashoffset: 0; stroke-linejoin: miter; stroke-miterlimit: 4; fill: rgb(0,63,76); fill-rule: nonzero; opacity: 1;" vector-effect="non-scaling-stroke"  transform=" translate(-102.19, -268.11)" d="M 95.465 272.523 L 105.693 259.745 L 107.248 260.201 L 108.91000000000001 276.473 L 106.94400000000002 275.89500000000004 L 106.47800000000002 271.13700000000006 L 100.37700000000002 269.34400000000005 L 97.43100000000003 273.10100000000006 z M 101.17 268.019 L 106.488 269.581 L 105.841 262.099 z" stroke-linecap="round" />
</g>
<g transform="matrix(3.55 0 0 3.55 463.68 1003.3)"  >
<path style="stroke: none; stroke-width: 1; stroke-dasharray: none; stroke-linecap: butt; stroke-dashoffset: 0; stroke-linejoin: miter; stroke-miterlimit: 4; fill: rgb(0,63,76); fill-rule: nonzero; opacity: 1;" vector-effect="non-scaling-stroke"  transform=" translate(-119.36, -270.03)" d="M 114.953 277.657 L 113.058 277.32 L 115.70500000000001 262.40999999999997 L 121.924 263.51399999999995 C 122.58300000000001 263.631 123.159 263.87499999999994 123.653 264.246 C 124.153 264.618 124.566 265.067 124.891 265.592 C 125.21600000000001 266.11699999999996 125.441 266.68399999999997 125.566 267.294 C 125.686 267.89599999999996 125.693 268.49199999999996 125.58800000000001 269.08299999999997 L 125.58800000000001 269.08299999999997 C 125.444 269.893 125.12500000000001 270.633 124.63100000000001 271.303 C 124.13700000000001 271.973 123.52300000000001 272.48 122.78900000000002 272.824 C 122.05000000000001 273.16 121.23700000000001 273.249 120.35200000000002 273.092 L 120.35200000000002 273.092 L 115.90300000000002 272.30199999999996 z M 117.302 264.425 L 116.20100000000001 270.624 L 120.54700000000001 271.39500000000004 C 121.06200000000001 271.48600000000005 121.54 271.42600000000004 121.98100000000001 271.21400000000006 C 122.415 271.00100000000003 122.781 270.67600000000004 123.078 270.24100000000004 C 123.382 269.80600000000004 123.584 269.30800000000005 123.683 268.744 L 123.683 268.744 C 123.78800000000001 268.15400000000005 123.75500000000001 267.603 123.584 267.091 C 123.413 266.579 123.149 266.153 122.791 265.814 C 122.434 265.47400000000005 122.011 265.261 121.524 265.17400000000004 L 121.524 265.17400000000004 z" stroke-linecap="round" />
</g>
<g transform="matrix(3.55 0 0 3.55 536.72 1011.7)"  >
<path style="stroke: none; stroke-width: 1; stroke-dasharray: none; stroke-linecap: butt; stroke-dashoffset: 0; stroke-linejoin: miter; stroke-miterlimit: 4; fill: rgb(0,63,76); fill-rule: nonzero; opacity: 1;" vector-effect="non-scaling-stroke"  transform=" translate(-139.95, -272.4)" d="M 132.921 264.798 L 134.95 264.813 L 139.86399999999998 277.58799999999997 L 144.95799999999997 264.888 L 146.97599999999997 264.90299999999996 L 140.72499999999997 279.99999999999994 L 138.97899999999996 279.98699999999997 z" stroke-linecap="round" />
</g>
<g transform="matrix(3.55 0 0 3.55 577.21 1010.91)"  >
<path style="stroke: none; stroke-width: 1; stroke-dasharray: none; stroke-linecap: butt; stroke-dashoffset: 0; stroke-linejoin: miter; stroke-miterlimit: 4; fill: rgb(0,63,76); fill-rule: nonzero; opacity: 1;" vector-effect="non-scaling-stroke"  transform=" translate(-151.36, -272.18)" d="M 152.843 279.665 L 150.92399999999998 279.797 L 149.885 264.689 L 151.804 264.557 z" stroke-linecap="round" />
</g>
<g transform="matrix(3.55 0 0 3.55 615.7 1005.74)"  >
<path style="stroke: none; stroke-width: 1; stroke-dasharray: none; stroke-linecap: butt; stroke-dashoffset: 0; stroke-linejoin: miter; stroke-miterlimit: 4; fill: rgb(0,63,76); fill-rule: nonzero; opacity: 1;" vector-effect="non-scaling-stroke"  transform=" translate(-162.21, -270.72)" d="M 166.04 264.036 L 165.411 265.716 C 165.207 265.544 164.949 265.391 164.638 265.258 C 164.333 265.11699999999996 163.993 265.002 163.618 264.91299999999995 C 163.244 264.82499999999993 162.84199999999998 264.76599999999996 162.414 264.73699999999997 C 161.98 264.715 161.539 264.73999999999995 161.09099999999998 264.81199999999995 L 161.09099999999998 264.81199999999995 C 159.94199999999998 264.99699999999996 159.12599999999998 265.35099999999994 158.646 265.87399999999997 C 158.172 266.395 157.99699999999999 267.03799999999995 158.11999999999998 267.80199999999996 L 158.11999999999998 267.80199999999996 C 158.20499999999998 268.33199999999994 158.414 268.729 158.74599999999998 268.99299999999994 C 159.07099999999997 269.2579999999999 159.54199999999997 269.43999999999994 160.159 269.53899999999993 C 160.77599999999998 269.64399999999995 161.54899999999998 269.73099999999994 162.47799999999998 269.80099999999993 L 162.47799999999998 269.80099999999993 C 163.55299999999997 269.8539999999999 164.49499999999998 269.98099999999994 165.30499999999998 270.1819999999999 C 166.11399999999998 270.3829999999999 166.76899999999998 270.7189999999999 167.26799999999997 271.1889999999999 C 167.76199999999997 271.6669999999999 168.08099999999996 272.3539999999999 168.22499999999997 273.2489999999999 L 168.22499999999997 273.2489999999999 C 168.33999999999997 273.9649999999999 168.30299999999997 274.6099999999999 168.11299999999997 275.1839999999999 C 167.92199999999997 275.7519999999999 167.60999999999999 276.2469999999999 167.17699999999996 276.6699999999999 C 166.73699999999997 277.0939999999999 166.20299999999997 277.4409999999999 165.57599999999996 277.7119999999999 C 164.94099999999997 277.97699999999986 164.23799999999997 278.1709999999999 163.46699999999996 278.2959999999999 L 163.46699999999996 278.2959999999999 C 162.70299999999995 278.41899999999987 161.94699999999995 278.45999999999987 161.19799999999995 278.4179999999999 C 160.44899999999996 278.3689999999999 159.72899999999996 278.2449999999999 159.04099999999994 278.0459999999999 C 158.34399999999994 277.8409999999999 157.67599999999993 277.54899999999986 157.03499999999994 277.17199999999985 L 157.03499999999994 277.17199999999985 L 157.68599999999995 275.42499999999984 C 157.94499999999994 275.6299999999998 158.27199999999996 275.82099999999986 158.66799999999995 275.9979999999998 C 159.06299999999996 276.1669999999998 159.50699999999995 276.3149999999998 159.99999999999994 276.4399999999998 C 160.48499999999996 276.55899999999986 161.00599999999994 276.6379999999998 161.56299999999993 276.67499999999984 C 162.11199999999994 276.7069999999998 162.66899999999993 276.67699999999985 163.23299999999992 276.58599999999984 L 163.23299999999992 276.58599999999984 C 164.29999999999993 276.4139999999998 165.0949999999999 276.08799999999985 165.6179999999999 275.60799999999983 C 166.1479999999999 275.12699999999984 166.35299999999992 274.5149999999998 166.23299999999992 273.77099999999984 L 166.23299999999992 273.77099999999984 C 166.1419999999999 273.2069999999998 165.9039999999999 272.78199999999987 165.51899999999992 272.49899999999985 C 165.13399999999993 272.21499999999986 164.6009999999999 272.0149999999999 163.91799999999992 271.89899999999983 C 163.23399999999992 271.77599999999984 162.41299999999993 271.6759999999998 161.45399999999992 271.5969999999998 L 161.45399999999992 271.5969999999998 C 160.40199999999993 271.51199999999983 159.50799999999992 271.3739999999998 158.77099999999993 271.1819999999998 C 158.03399999999993 270.9899999999998 157.45399999999992 270.67799999999977 157.03099999999992 270.2449999999998 C 156.6069999999999 269.8049999999998 156.3319999999999 269.19299999999976 156.20499999999993 268.40699999999975 L 156.20499999999993 268.40699999999975 C 156.05099999999993 267.44999999999976 156.15499999999992 266.60699999999974 156.51699999999994 265.87799999999976 C 156.87199999999993 265.14299999999974 157.42799999999994 264.54099999999977 158.18599999999995 264.07299999999975 C 158.94399999999996 263.60499999999973 159.83599999999996 263.2879999999997 160.86099999999996 263.12299999999976 L 160.86099999999996 263.12299999999976 C 161.53599999999997 263.0139999999998 162.17599999999996 262.98199999999974 162.78399999999996 263.02499999999975 C 163.38499999999996 263.07599999999974 163.96099999999996 263.1849999999998 164.50999999999996 263.34999999999974 C 165.05399999999997 263.5239999999997 165.56399999999996 263.7519999999997 166.03999999999996 264.0359999999997 z" stroke-linecap="round" />
</g>
<g transform="matrix(3.55 0 0 3.55 666.88 990.65)"  >
<path style="stroke: none; stroke-width: 1; stroke-dasharray: none; stroke-linecap: butt; stroke-dashoffset: 0; stroke-linejoin: miter; stroke-miterlimit: 4; fill: rgb(0,63,76); fill-rule: nonzero; opacity: 1;" vector-effect="non-scaling-stroke"  transform=" translate(-176.64, -266.47)" d="M 179.53 274.52 L 179.53 274.52 C 178.369 274.84799999999996 177.333 274.923 176.42 274.74699999999996 C 175.515 274.568 174.726 274.19999999999993 174.05499999999998 273.64399999999995 C 173.37699999999998 273.08899999999994 172.80599999999998 272.40299999999996 172.343 271.58399999999995 C 171.875 270.77399999999994 171.509 269.90299999999996 171.24599999999998 268.97099999999995 L 171.24599999999998 268.97099999999995 L 169.164 261.6039999999999 L 171.006 261.08399999999995 L 173.088 268.45099999999996 C 173.289 269.162 173.559 269.83599999999996 173.898 270.47099999999995 C 174.23 271.1089999999999 174.637 271.6499999999999 175.117 272.09399999999994 C 175.596 272.53099999999995 176.161 272.8279999999999 176.813 272.9839999999999 C 177.45899999999997 273.14199999999994 178.201 273.10299999999995 179.04 272.8649999999999 L 179.04 272.8649999999999 C 179.885 272.6259999999999 180.54399999999998 272.2659999999999 181.017 271.7849999999999 C 181.483 271.3059999999999 181.804 270.7509999999999 181.982 270.1219999999999 C 182.157 269.4859999999999 182.224 268.8109999999999 182.182 268.0979999999999 C 182.13299999999998 267.3869999999999 182.01 266.6829999999999 181.813 265.9849999999999 L 181.813 265.9849999999999 L 179.732 258.6179999999999 L 181.583 258.09499999999986 L 183.665 265.4619999999999 C 183.944 266.44799999999987 184.094 267.4159999999999 184.11599999999999 268.36699999999985 C 184.136 269.30999999999983 183.99599999999998 270.18699999999984 183.696 270.99599999999987 C 183.396 271.8049999999999 182.905 272.51599999999985 182.22299999999998 273.12899999999985 C 181.54799999999997 273.73999999999984 180.64999999999998 274.20399999999984 179.52999999999997 274.51999999999987 z" stroke-linecap="round" />
</g>
<g transform="matrix(3.55 0 0 3.55 732.91 977.89)"  >
<path style="stroke: none; stroke-width: 1; stroke-dasharray: none; stroke-linecap: butt; stroke-dashoffset: 0; stroke-linejoin: miter; stroke-miterlimit: 4; fill: rgb(0,63,76); fill-rule: nonzero; opacity: 1;" vector-effect="non-scaling-stroke"  transform=" translate(-195.26, -262.87)" d="M 188.992 271.375 L 188.66299999999998 255.01 L 190.14999999999998 254.36499999999998 L 201.84799999999998 265.796 L 199.968 266.61199999999997 L 196.56199999999998 263.25699999999995 L 190.72899999999998 265.78799999999995 L 190.873 270.55899999999997 z M 190.488 264.262 L 195.573 262.055 L 190.28400000000002 256.724 z" stroke-linecap="round" />
</g>
<g transform="matrix(3.55 0 0 3.55 772.19 956.16)"  >
<path style="stroke: none; stroke-width: 1; stroke-dasharray: none; stroke-linecap: butt; stroke-dashoffset: 0; stroke-linejoin: miter; stroke-miterlimit: 4; fill: rgb(0,63,76); fill-rule: nonzero; opacity: 1;" vector-effect="non-scaling-stroke"  transform=" translate(-206.33, -256.74)" d="M 214.576 258.676 L 205.567 263.801 L 198.08 250.63799999999998 L 199.752 249.68699999999998 L 206.39700000000002 261.368 L 213.73300000000003 257.195 z" stroke-linecap="round" />
</g>
<g transform="matrix(3.55 0 0 3.55 801.32 930.57)"  >
<path style="stroke: none; stroke-width: 1; stroke-dasharray: none; stroke-linecap: butt; stroke-dashoffset: 0; stroke-linejoin: miter; stroke-miterlimit: 4; fill: rgb(0,63,76); fill-rule: nonzero; opacity: 1;" vector-effect="non-scaling-stroke"  transform=" translate(-214.54, -249.53)" d="M 219.562 255.277 L 217.965 256.34999999999997 L 209.518 243.78099999999998 L 211.116 242.70799999999997 z" stroke-linecap="round" />
</g>
<g transform="matrix(3.55 0 0 3.55 832.17 907.7)"  >
<path style="stroke: none; stroke-width: 1; stroke-dasharray: none; stroke-linecap: butt; stroke-dashoffset: 0; stroke-linejoin: miter; stroke-miterlimit: 4; fill: rgb(0,63,76); fill-rule: nonzero; opacity: 1;" vector-effect="non-scaling-stroke"  transform=" translate(-223.24, -243.08)" d="M 223.187 235.145 L 223.48100000000002 236.91500000000002 C 223.21800000000002 236.86800000000002 222.919 236.865 222.58200000000002 236.90400000000002 C 222.247 236.93400000000003 221.895 237.00400000000002 221.52700000000002 237.11500000000004 C 221.15900000000002 237.22600000000003 220.782 237.37500000000003 220.39600000000002 237.56400000000005 C 220.00900000000001 237.76200000000006 219.64000000000001 238.00400000000005 219.288 238.29000000000005 L 219.288 238.29000000000005 C 218.38500000000002 239.02500000000006 217.85500000000002 239.73900000000006 217.70000000000002 240.43100000000004 C 217.55 241.11900000000003 217.71900000000002 241.76400000000004 218.20700000000002 242.36400000000003 L 218.20700000000002 242.36400000000003 C 218.54600000000002 242.78000000000003 218.925 243.02000000000004 219.34500000000003 243.08300000000003 C 219.75900000000001 243.15000000000003 220.25800000000004 243.07300000000004 220.84100000000004 242.85100000000003 C 221.42800000000003 242.63400000000001 222.14200000000002 242.32300000000004 222.98100000000002 241.91800000000003 L 222.98100000000002 241.91800000000003 C 223.93800000000002 241.42700000000002 224.818 241.06600000000003 225.62000000000003 240.83700000000005 C 226.42200000000003 240.60700000000006 227.15600000000003 240.57100000000005 227.82400000000004 240.72900000000004 C 228.49100000000004 240.89700000000005 229.11000000000004 241.33200000000005 229.68200000000004 242.03500000000005 L 229.68200000000004 242.03500000000005 C 230.14000000000004 242.59700000000007 230.43000000000004 243.17500000000004 230.55200000000005 243.76700000000005 C 230.67000000000004 244.35400000000004 230.64700000000005 244.93900000000005 230.48300000000006 245.52200000000005 C 230.31400000000005 246.10900000000004 230.02500000000006 246.67700000000005 229.61700000000005 247.22400000000005 C 229.19900000000004 247.77100000000004 228.68700000000004 248.29100000000005 228.08100000000005 248.78400000000005 L 228.08100000000005 248.78400000000005 C 227.48100000000005 249.27200000000005 226.84600000000003 249.68500000000006 226.17700000000005 250.02300000000005 C 225.50400000000005 250.35500000000005 224.81800000000004 250.60700000000006 224.12200000000004 250.77800000000005 C 223.41600000000005 250.94800000000004 222.69100000000003 251.03000000000006 221.94800000000004 251.02300000000005 L 221.94800000000004 251.02300000000005 L 221.63900000000004 249.18500000000006 C 221.96600000000004 249.23300000000006 222.34500000000003 249.23500000000007 222.77600000000004 249.19000000000005 C 223.20200000000003 249.14000000000004 223.66100000000003 249.04600000000005 224.15100000000004 248.90800000000004 C 224.63100000000003 248.76900000000003 225.12200000000004 248.57700000000006 225.62200000000004 248.33000000000004 C 226.11300000000006 248.08300000000003 226.58100000000005 247.77900000000005 227.02500000000003 247.41900000000004 L 227.02500000000003 247.41900000000004 C 227.86300000000003 246.73700000000005 228.38900000000004 246.05800000000005 228.60200000000003 245.38100000000003 C 228.82100000000003 244.70000000000002 228.69200000000004 244.06700000000004 228.21700000000004 243.48300000000003 L 228.21700000000004 243.48300000000003 C 227.85600000000005 243.04000000000002 227.43800000000005 242.79100000000003 226.96300000000005 242.73700000000002 C 226.48800000000006 242.68300000000002 225.92600000000004 242.77700000000002 225.27700000000004 243.01700000000002 C 224.62300000000005 243.25200000000004 223.86200000000005 243.57500000000002 222.99100000000004 243.98600000000002 L 222.99100000000004 243.98600000000002 C 222.03800000000004 244.43800000000002 221.19400000000005 244.76500000000001 220.46000000000004 244.967 C 219.72600000000003 245.169 219.06700000000004 245.18800000000002 218.48400000000004 245.024 C 217.89700000000005 244.855 217.35200000000003 244.462 216.85100000000003 243.845 L 216.85100000000003 243.845 C 216.23900000000003 243.093 215.90800000000002 242.311 215.85800000000003 241.498 C 215.79800000000003 240.684 215.97900000000004 239.885 216.40200000000004 239.101 C 216.82500000000005 238.317 217.43900000000005 237.597 218.24400000000006 236.941 L 218.24400000000006 236.941 C 218.77400000000006 236.51 219.31300000000005 236.161 219.86100000000005 235.89600000000002 C 220.40800000000004 235.64000000000001 220.96000000000004 235.447 221.51900000000003 235.31500000000003 C 222.07700000000003 235.19400000000002 222.63300000000004 235.13700000000003 223.18700000000004 235.14500000000004 z" stroke-linecap="round" />
</g>
<g transform="matrix(3.55 0 0 3.55 877.28 879.57)"  >
<path style="stroke: none; stroke-width: 1; stroke-dasharray: none; stroke-linecap: butt; stroke-dashoffset: 0; stroke-linejoin: miter; stroke-miterlimit: 4; fill: rgb(0,63,76); fill-rule: nonzero; opacity: 1;" vector-effect="non-scaling-stroke"  transform=" translate(-235.95, -235.15)" d="M 234.343 243.236 L 227.801 228.232 L 228.92999999999998 227.069 L 244.10199999999998 233.178 L 242.67399999999998 234.649 L 238.24699999999999 232.845 L 233.819 237.409 L 235.771 241.765 z M 233.015 236.089 L 236.875 232.111 L 229.953 229.19799999999998 z" stroke-linecap="round" />
</g>
<g transform="matrix(3.55 0 0 3.55 895.91 827.82)"  >
<path style="stroke: none; stroke-width: 1; stroke-dasharray: none; stroke-linecap: butt; stroke-dashoffset: 0; stroke-linejoin: miter; stroke-miterlimit: 4; fill: rgb(0,63,76); fill-rule: nonzero; opacity: 1;" vector-effect="non-scaling-stroke"  transform=" translate(-241.2, -220.56)" d="M 240.677 213.079 L 242.018 214.132 L 238.795 218.237 L 249.36499999999998 226.536 L 248.177 228.049 L 237.607 219.75 L 234.384 223.855 L 233.04299999999998 222.802 z" stroke-linecap="round" />
</g>
<g transform="matrix(3.55 0 0 3.55 924.3 804.36)"  >
<path style="stroke: none; stroke-width: 1; stroke-dasharray: none; stroke-linecap: butt; stroke-dashoffset: 0; stroke-linejoin: miter; stroke-miterlimit: 4; fill: rgb(0,63,76); fill-rule: nonzero; opacity: 1;" vector-effect="non-scaling-stroke"  transform=" translate(-249.21, -213.95)" d="M 256.022 217.389 L 254.945 218.984 L 242.394 210.512 L 243.47 208.917 z" stroke-linecap="round" />
</g>
<g transform="matrix(3.55 0 0 3.55 945.61 766.98)"  >
<path style="stroke: none; stroke-width: 1; stroke-dasharray: none; stroke-linecap: butt; stroke-dashoffset: 0; stroke-linejoin: miter; stroke-miterlimit: 4; fill: rgb(0,63,76); fill-rule: nonzero; opacity: 1;" vector-effect="non-scaling-stroke"  transform=" translate(-255.21, -203.42)" d="M 261.962 207.038 L 261.962 207.038 C 261.457 207.978 260.812 208.73100000000002 260.024 209.298 C 259.24 209.858 258.376 210.245 257.431 210.458 C 256.486 210.671 255.527 210.71 254.55499999999998 210.575 C 253.59199999999998 210.438 252.68399999999997 210.14 251.82899999999998 209.68099999999998 L 251.82899999999998 209.68099999999998 C 250.938 209.20299999999997 250.176 208.588 249.54399999999998 207.837 C 248.90499999999997 207.082 248.42 206.25199999999998 248.09099999999998 205.34699999999998 C 247.765 204.43599999999998 247.62399999999997 203.498 247.66799999999998 202.53199999999998 C 247.70799999999997 201.57199999999997 247.97099999999998 200.641 248.45499999999998 199.73799999999997 L 248.45499999999998 199.73799999999997 C 248.95999999999998 198.79799999999997 249.60999999999999 198.05099999999996 250.40599999999998 197.49799999999996 C 251.20199999999997 196.94399999999996 252.07399999999998 196.56599999999997 253.022 196.36199999999997 C 253.97 196.15899999999996 254.927 196.12299999999996 255.894 196.25399999999996 C 256.854 196.38199999999995 257.755 196.67199999999997 258.596 197.12399999999997 L 258.596 197.12399999999997 C 259.487 197.60199999999998 260.25 198.21399999999997 260.887 198.95899999999997 C 261.53 199.70799999999997 262.014 200.53699999999998 262.34 201.44899999999998 C 262.666 202.35999999999999 262.806 203.29399999999998 262.75899999999996 204.249 C 262.71199999999993 205.20499999999998 262.44699999999995 206.135 261.96199999999993 207.03799999999998 z M 252.745 207.977 L 252.745 207.977 C 253.421 208.34 254.13400000000001 208.58100000000002 254.885 208.699 C 255.63299999999998 208.824 256.36199999999997 208.81500000000003 257.07099999999997 208.674 C 257.77099999999996 208.535 258.417 208.261 259.00899999999996 207.851 C 259.60099999999994 207.441 260.08199999999994 206.892 260.45099999999996 206.203 L 260.45099999999996 206.203 C 260.83399999999995 205.49 261.02599999999995 204.77100000000002 261.02899999999994 204.04500000000002 C 261.02799999999996 203.324 260.88599999999997 202.63100000000003 260.60299999999995 201.96400000000003 C 260.30999999999995 201.30000000000004 259.9069999999999 200.69600000000003 259.39199999999994 200.15100000000004 C 258.87399999999997 199.61200000000005 258.29599999999994 199.17100000000005 257.65799999999996 198.82800000000003 L 257.65799999999996 198.82800000000003 C 256.98199999999997 198.46500000000003 256.27299999999997 198.22300000000004 255.53099999999995 198.10100000000003 C 254.78599999999994 197.98600000000002 254.05499999999995 197.997 253.33999999999995 198.13600000000002 C 252.62799999999996 198.28400000000002 251.98199999999994 198.55800000000002 251.40299999999993 198.95900000000003 C 250.81999999999994 199.36600000000004 250.34799999999993 199.90800000000004 249.98399999999992 200.58300000000003 L 249.98399999999992 200.58300000000003 C 249.59799999999993 201.30200000000002 249.40199999999993 202.02000000000004 249.39699999999993 202.73700000000002 C 249.38799999999995 203.46000000000004 249.52999999999994 204.15400000000002 249.82299999999992 204.818 C 250.1059999999999 205.484 250.50199999999992 206.089 251.0109999999999 206.63000000000002 C 251.5159999999999 207.17800000000003 252.0939999999999 207.62700000000004 252.74499999999992 207.97700000000003 z" stroke-linecap="round" />
</g>
<g transform="matrix(3.55 0 0 3.55 970.98 710.27)"  >
<path style="stroke: none; stroke-width: 1; stroke-dasharray: none; stroke-linecap: butt; stroke-dashoffset: 0; stroke-linejoin: miter; stroke-miterlimit: 4; fill: rgb(0,63,76); fill-rule: nonzero; opacity: 1;" vector-effect="non-scaling-stroke"  transform=" translate(-262.37, -187.43)" d="M 271.1 185.781 L 257.00600000000003 190.167 L 267.83900000000006 194.309 L 267.15200000000004 196.107 L 253.00700000000003 190.698 L 253.58600000000004 189.184 L 267.94900000000007 184.767 L 256.91100000000006 180.547 L 257.59800000000007 178.749 L 271.72300000000007 184.15 z" stroke-linecap="round" />
</g>
<g transform="matrix(3.55 0 0 3.55 71.73 549.22)"  >
<path style="stroke: none; stroke-width: 1; stroke-dasharray: none; stroke-linecap: butt; stroke-dashoffset: 0; stroke-linejoin: miter; stroke-miterlimit: 4; fill: rgb(0,63,76); fill-rule: nonzero; opacity: 1;" vector-effect="non-scaling-stroke"  transform=" translate(-8.87, -142.03)" d="M 7.124 142.028 C 7.124 141.063 7.906 140.28 8.872 140.28 C 9.837 140.28 10.62 141.062 10.619 142.028 C 10.619 142.993 9.837 143.77599999999998 8.872 143.77599999999998 C 7.907 143.77599999999998 7.124 142.99399999999997 7.124 142.028 z" stroke-linecap="round" />
</g>
<g transform="matrix(3.55 0 0 3.55 1006.65 549.22)"  >
<path style="stroke: none; stroke-width: 1; stroke-dasharray: none; stroke-linecap: butt; stroke-dashoffset: 0; stroke-linejoin: miter; stroke-miterlimit: 4; fill: rgb(0,63,76); fill-rule: nonzero; opacity: 1;" vector-effect="non-scaling-stroke"  transform=" translate(-272.42, -142.03)" d="M 270.674 142.028 C 270.674 141.063 271.45599999999996 140.28 272.42199999999997 140.28 C 273.38699999999994 140.28 274.16999999999996 141.062 274.169 142.028 C 274.169 142.993 273.387 143.77599999999998 272.42199999999997 143.77599999999998 C 271.457 143.77599999999998 270.674 142.99399999999997 270.674 142.028 z" stroke-linecap="round" />
</g>
</svg>