<?xml version="1.0" standalone="no"?>
<!DOCTYPE svg PUBLIC "-//W3C//DTD SVG 1.1//EN" "http://www.w3.org/Graphics/SVG/1.1/DTD/svg11.dtd">
<svg xmlns="http://www.w3.org/2000/svg" xmlns:xlink="http://www.w3.org/1999/xlink" xmlns:svgjs="http://svgjs.dev/svgjs" version="1.1" width="1000" height="1000" viewBox="0 0 1000 1000"><rect width="1000" height="1000" fill="#ffffff"/><g transform="matrix(0.7,0,0,0.7,150,150)"><svg xmlns="http://www.w3.org/2000/svg" xmlns:xlink="http://www.w3.org/1999/xlink" viewBox="0 0 280 280" data-background-color="#ffffff" preserveAspectRatio="xMidYMid meet" height="1000" width="1000"><g id="tight-bounds" transform="matrix(1,0,0,1,0,0)"><svg viewBox="0 0 280 280" height="280" width="280"><g><svg viewBox="0 0 280 280" height="280" width="280"><g><svg viewBox="0 0 280 280" height="280" width="280"><g id="textblocktransform"><svg viewBox="0 0 280 280" height="280" width="280" id="textblock"><g><svg viewBox="0 0 280 280" height="280" width="280"><g transform="matrix(1,0,0,1,57.50420886156945,57.50420886156945)"><svg viewBox="0 0 164.9915822768611 164.9915822768611" height="164.9915822768611" width="164.9915822768611"><g><circle r="82" cx="82.49579113843055" cy="82.49579113843055" fill="#003f4c" data-fill-palette-color="accent"/><svg xmlns="http://www.w3.org/2000/svg" xmlns:xlink="http://www.w3.org/1999/xlink" version="1.1" x="24.748737341529164" y="24.74873734152917" viewBox="6.7129998207092285 6.756998062133789 87.63700103759766 86.18600463867188" enable-background="new 0 -0.856 100 100" xml:space="preserve" height="115.49410759380275" width="115.49410759380275" class="icon-o-0" data-fill-palette-color="quaternary" id="o-0"><path d="M65.07 28.772l-10.889 4.51v-8.451c4.166-0.845 7.305-4.529 7.305-8.945 0-5.042-4.088-9.129-9.129-9.129-5.042 0-9.129 4.087-9.129 9.129 0 4.416 3.136 8.099 7.303 8.945v9.963L36.02 40.806 6.713 28.666v52.042L36.02 92.851l29.05-12.036L94.35 92.943V40.9L65.07 28.772zM46.88 15.886c0-3.025 2.453-5.478 5.478-5.478 3.023 0 5.477 2.453 5.477 5.478 0 3.024-2.453 5.477-5.477 5.477C49.333 21.363 46.88 18.91 46.88 15.886zM90.699 87.479L65.07 76.861 36.02 88.897 10.364 78.271V34.13l25.655 10.627 14.512-6.011v15.479h3.65V37.234l10.889-4.51 25.629 10.617V87.479z" fill="#ffffff" data-fill-palette-color="quaternary"/><polygon points="34.1,49.779 34.1,82.644 36.02,83.438 37.751,82.723 37.751,49.857 36.02,50.574 " fill="#ffffff" data-fill-palette-color="quaternary"/><polygon points="63.313,39.542 63.313,72.407 65.043,71.689 66.963,72.484 66.963,39.621 65.043,38.825 " fill="#ffffff" data-fill-palette-color="quaternary"/></svg></g></svg></g><g><path d="M22.059 97.744l-3.024 9.913-14.485-4.419 0.562-1.84 12.854 3.921 2.462-8.073z" fill="#003f4c" data-fill-palette-color="primary"/><path d="M22.486 92.459l3.273-7.689 1.569 0.668-4.027 9.459-13.933-5.931 3.953-9.286 1.568 0.668-3.199 7.515 4.513 1.921 2.781-6.534 1.472 0.627-2.781 6.534z" fill="#003f4c" data-fill-palette-color="primary"/><path d="M28.28 83.75l-9.969-12.981 0.814-1.402 16.199 2.268-1.031 1.772-4.732-0.683-3.196 5.497 2.946 3.757zM25.267 77.135l2.786-4.792-7.421-1.156z" fill="#003f4c" data-fill-palette-color="primary"/><path d="M38.223 67.618l-1.138 1.552-12.209-8.959 5.921-8.069 1.374 1.008-4.782 6.518 4.081 2.995 4.021-5.481 1.282 0.94-4.022 5.481z" fill="#003f4c" data-fill-palette-color="primary"/><path d="M52.323 50.926l-6.995 7.647-11.174-10.221 1.299-1.42 9.916 9.071 5.696-6.227z" fill="#003f4c" data-fill-palette-color="primary"/><path d="M54.983 46.341l6.264-5.531 1.128 1.277-7.706 6.805-10.023-11.351 7.564-6.68 1.129 1.278-6.123 5.406 3.247 3.677 5.323-4.701 1.059 1.2-5.323 4.7z" fill="#003f4c" data-fill-palette-color="primary"/><path d="M65.667 21.378l0.97 1.402-4.292 2.969 7.647 11.052-1.583 1.095-7.646-11.052-4.292 2.97-0.97-1.402z" fill="#003f4c" data-fill-palette-color="primary"/><path d="M95.937 23.047l-1.744 0.812-4.878-10.477-0.77 10.165-1.062 0.494-8.294-5.944 4.878 10.476-1.745 0.812-6.391-13.728 1.839-0.856 9.117 6.599 0.838-11.234 1.821-0.848z" fill="#003f4c" data-fill-palette-color="primary"/><path d="M98.602 22.214l1.693-16.28 1.555-0.457 10.198 12.788-1.966 0.577-2.966-3.75-6.101 1.792-0.446 4.753zM100.965 15.34l5.318-1.562-4.591-5.944z" fill="#003f4c" data-fill-palette-color="primary"/><path d="M116.899 17.361l-1.895 0.336-2.647-14.91 6.219-1.104c0.659-0.117 1.284-0.086 1.875 0.092 0.598 0.177 1.14 0.456 1.626 0.837 0.485 0.381 0.892 0.837 1.219 1.366 0.32 0.524 0.532 1.081 0.637 1.672v0c0.144 0.81 0.099 1.615-0.135 2.413-0.233 0.799-0.635 1.487-1.205 2.063-0.579 0.57-1.311 0.934-2.197 1.091v0l-4.448 0.789zM114.55 4.129l1.1 6.199 4.345-0.772c0.515-0.091 0.943-0.313 1.285-0.663 0.334-0.35 0.566-0.78 0.694-1.292 0.136-0.513 0.153-1.05 0.054-1.613v0c-0.105-0.59-0.326-1.096-0.663-1.518-0.337-0.422-0.732-0.73-1.184-0.927-0.453-0.196-0.923-0.25-1.41-0.164v0z" fill="#003f4c" data-fill-palette-color="primary"/><path d="M132.779 0.104l2.028-0.015 5.104 12.701 4.905-12.775 2.018-0.015-6.026 15.189-1.747 0.013z" fill="#003f4c" data-fill-palette-color="primary"/><path d="M152.08 15.498l-1.92-0.132 1.039-15.108 1.92 0.132z" fill="#003f4c" data-fill-palette-color="primary"/><path d="M168.573 4.311l-1.126 1.397c-0.14-0.227-0.337-0.453-0.589-0.677-0.245-0.23-0.532-0.446-0.86-0.648-0.328-0.201-0.69-0.383-1.088-0.546-0.405-0.157-0.832-0.272-1.279-0.344v0c-1.149-0.185-2.035-0.106-2.655 0.24-0.614 0.346-0.982 0.901-1.106 1.665v0c-0.085 0.53-0.012 0.973 0.221 1.328 0.225 0.354 0.615 0.675 1.169 0.961 0.553 0.294 1.26 0.62 2.12 0.978v0c1.004 0.388 1.858 0.805 2.563 1.25 0.705 0.446 1.221 0.97 1.547 1.573 0.318 0.609 0.406 1.361 0.261 2.257v0c-0.115 0.716-0.354 1.317-0.714 1.802-0.36 0.479-0.812 0.851-1.356 1.116-0.551 0.264-1.167 0.426-1.847 0.486-0.686 0.052-1.415 0.016-2.186-0.109v0c-0.764-0.123-1.495-0.322-2.192-0.597-0.696-0.282-1.34-0.626-1.931-1.032-0.597-0.414-1.14-0.901-1.629-1.459v0l1.167-1.454c0.181 0.276 0.432 0.56 0.752 0.852 0.321 0.285 0.696 0.564 1.125 0.838 0.423 0.266 0.893 0.504 1.411 0.715 0.511 0.202 1.049 0.349 1.613 0.44v0c1.067 0.172 1.924 0.112 2.571-0.178 0.654-0.29 1.041-0.807 1.161-1.551v0c0.091-0.564-0.002-1.042-0.277-1.432-0.276-0.391-0.72-0.748-1.332-1.073-0.61-0.331-1.358-0.685-2.244-1.061v0c-0.972-0.411-1.778-0.823-2.417-1.237-0.639-0.414-1.092-0.893-1.357-1.437-0.264-0.551-0.333-1.219-0.207-2.004v0c0.154-0.957 0.518-1.724 1.092-2.302 0.568-0.586 1.285-0.983 2.151-1.189 0.867-0.206 1.813-0.227 2.839-0.062v0c0.675 0.109 1.293 0.279 1.856 0.511 0.555 0.238 1.067 0.522 1.536 0.852 0.461 0.336 0.874 0.713 1.237 1.131z" fill="#003f4c" data-fill-palette-color="primary"/><path d="M176.446 20.45v0c-1.161-0.328-2.083-0.806-2.768-1.434-0.678-0.626-1.158-1.352-1.439-2.178-0.288-0.828-0.415-1.711-0.381-2.65 0.025-0.935 0.169-1.868 0.433-2.801v0l2.081-7.367 1.842 0.52-2.082 7.367c-0.201 0.711-0.323 1.426-0.367 2.146-0.051 0.717 0.013 1.391 0.19 2.02 0.179 0.623 0.506 1.172 0.98 1.647 0.468 0.473 1.121 0.828 1.96 1.064v0c0.845 0.239 1.595 0.277 2.25 0.114 0.648-0.165 1.212-0.469 1.692-0.913 0.482-0.451 0.892-0.99 1.23-1.619 0.33-0.631 0.594-1.296 0.791-1.994v0l2.081-7.367 1.852 0.524-2.081 7.367c-0.279 0.986-0.657 1.89-1.136 2.711-0.476 0.814-1.054 1.488-1.733 2.02-0.679 0.533-1.47 0.882-2.372 1.047-0.895 0.167-1.903 0.093-3.023-0.223z" fill="#003f4c" data-fill-palette-color="primary"/><path d="M184.56 22.894l11.728-11.419 1.487 0.645-0.359 16.352-1.88-0.816 0.124-4.779-5.833-2.532-3.386 3.365zM190.778 19.128l5.084 2.206 0.282-7.505z" fill="#003f4c" data-fill-palette-color="primary"/><path d="M209.071 35.056l-9.008-5.124 7.487-13.163 1.673 0.952-6.645 11.681 7.336 4.173z" fill="#003f4c" data-fill-palette-color="primary"/><path d="M213.352 38.02l-1.597-1.074 8.446-12.569 1.598 1.073z" fill="#003f4c" data-fill-palette-color="primary"/><path d="M233.228 36.568l-1.673 0.648c-0.008-0.267-0.065-0.561-0.172-0.882-0.098-0.322-0.238-0.652-0.421-0.99-0.183-0.338-0.407-0.677-0.67-1.016-0.273-0.339-0.585-0.651-0.936-0.937v0c-0.903-0.735-1.71-1.108-2.42-1.12-0.704-0.007-1.301 0.29-1.789 0.891v0c-0.339 0.416-0.496 0.837-0.473 1.26 0.018 0.419 0.196 0.892 0.532 1.417 0.332 0.531 0.782 1.166 1.349 1.906v0c0.676 0.837 1.208 1.625 1.596 2.363 0.388 0.738 0.573 1.45 0.554 2.136-0.029 0.687-0.329 1.382-0.901 2.085v0c-0.458 0.562-0.964 0.964-1.519 1.205-0.551 0.235-1.128 0.332-1.732 0.289-0.609-0.046-1.224-0.214-1.843-0.502-0.62-0.298-1.233-0.693-1.84-1.186v0c-0.6-0.488-1.134-1.026-1.6-1.612-0.462-0.592-0.848-1.211-1.158-1.858-0.31-0.657-0.538-1.35-0.682-2.079v0l1.737-0.676c0.019 0.33 0.094 0.701 0.226 1.114 0.136 0.407 0.321 0.837 0.557 1.288 0.234 0.442 0.522 0.883 0.864 1.324 0.342 0.431 0.734 0.827 1.178 1.187v0c0.838 0.682 1.611 1.059 2.316 1.13 0.712 0.076 1.305-0.179 1.781-0.763v0c0.361-0.443 0.519-0.903 0.475-1.38-0.044-0.476-0.25-1.008-0.618-1.594-0.363-0.592-0.835-1.272-1.414-2.04v0c-0.637-0.841-1.129-1.601-1.475-2.279-0.347-0.678-0.5-1.319-0.458-1.923 0.046-0.609 0.32-1.222 0.822-1.839v0c0.612-0.752 1.31-1.235 2.096-1.45 0.785-0.224 1.604-0.21 2.457 0.045 0.854 0.254 1.684 0.709 2.49 1.365v0c0.53 0.431 0.981 0.888 1.352 1.37 0.362 0.483 0.664 0.985 0.906 1.505 0.232 0.521 0.401 1.054 0.506 1.598z" fill="#003f4c" data-fill-palette-color="primary"/><path d="M226.353 48.573l15.194-6.087 1.129 1.163-6.564 14.981-1.428-1.471 1.938-4.371-4.428-4.564-4.413 1.82zM233.536 47.461l3.86 3.978 3.121-6.831z" fill="#003f4c" data-fill-palette-color="primary"/><path d="M255.742 59.148l-1.341 1.053-3.223-4.105-10.569 8.299-1.189-1.513 10.57-8.299-3.223-4.105 1.341-1.053z" fill="#003f4c" data-fill-palette-color="primary"/><path d="M246.794 72.895l-1.076-1.595 12.551-8.472 1.077 1.595z" fill="#003f4c" data-fill-palette-color="primary"/><path d="M251.969 82.383v0c-0.505-0.94-0.776-1.894-0.813-2.863-0.034-0.963 0.121-1.897 0.465-2.802 0.345-0.905 0.842-1.726 1.491-2.463 0.646-0.727 1.396-1.32 2.251-1.778v0c0.891-0.478 1.824-0.774 2.8-0.886 0.982-0.116 1.942-0.061 2.878 0.164 0.939 0.232 1.8 0.632 2.58 1.202 0.778 0.564 1.409 1.297 1.894 2.2v0c0.505 0.94 0.768 1.894 0.79 2.864 0.022 0.969-0.144 1.905-0.499 2.808-0.354 0.902-0.853 1.72-1.496 2.453-0.637 0.73-1.376 1.321-2.217 1.773v0c-0.891 0.478-1.822 0.777-2.796 0.895-0.979 0.122-1.938 0.067-2.877-0.164-0.939-0.232-1.795-0.631-2.567-1.198-0.771-0.567-1.4-1.302-1.884-2.205zM256.278 74.182v0c-0.676 0.363-1.27 0.825-1.785 1.385-0.517 0.555-0.913 1.167-1.186 1.836-0.271 0.66-0.399 1.35-0.384 2.07 0.015 0.72 0.207 1.424 0.576 2.112v0c0.383 0.713 0.876 1.271 1.481 1.674 0.601 0.397 1.258 0.662 1.969 0.795 0.715 0.123 1.442 0.12 2.18-0.008 0.735-0.134 1.422-0.372 2.062-0.715v0c0.676-0.363 1.269-0.82 1.78-1.371 0.508-0.558 0.902-1.173 1.181-1.845 0.27-0.675 0.398-1.365 0.385-2.07-0.018-0.711-0.208-1.404-0.571-2.08v0c-0.386-0.719-0.876-1.278-1.471-1.679-0.598-0.407-1.255-0.672-1.97-0.794-0.712-0.132-1.434-0.136-2.167-0.012-0.736 0.118-1.429 0.352-2.08 0.702z" fill="#003f4c" data-fill-palette-color="primary"/><path d="M260.701 102.251l7.572-12.67-10.833 4.142-0.687-1.798 14.145-5.408 0.578 1.514-7.752 12.873 11.038-4.22 0.688 1.797-14.125 5.401z" fill="#003f4c" data-fill-palette-color="primary"/><path d="M11.41 189.56l-3.024-9.913 14.485-4.418 0.561 1.841-12.854 3.921 2.463 8.072z" fill="#003f4c" data-fill-palette-color="primary"/><path d="M15.38 194.622l3.273 7.689-1.569 0.667-4.026-9.458 13.933-5.932 3.953 9.286-1.569 0.668-3.199-7.516-4.513 1.922 2.782 6.533-1.473 0.627-2.781-6.534z" fill="#003f4c" data-fill-palette-color="primary"/><path d="M18.656 205.901l16.214-2.24 0.814 1.401-9.985 12.954-1.03-1.772 2.934-3.774-3.195-5.497-4.722 0.7zM25.895 206.555l2.786 4.792 4.677-5.876z" fill="#003f4c" data-fill-palette-color="primary"/><path d="M29.248 223.024l-1.139-1.552 12.209-8.958 5.921 8.069-1.374 1.008-4.783-6.517-4.081 2.994 4.022 5.481-1.282 0.94-4.021-5.48z" fill="#003f4c" data-fill-palette-color="primary"/><path d="M44.108 240.644l-6.995-7.647 11.174-10.221 1.299 1.419-9.916 9.071 5.696 6.227z" fill="#003f4c" data-fill-palette-color="primary"/><path d="M49.871 243.505l6.263 5.531-1.128 1.278-7.706-6.805 10.024-11.351 7.564 6.68-1.128 1.278-6.122-5.407-3.247 3.677 5.323 4.7-1.059 1.2-5.323-4.701z" fill="#003f4c" data-fill-palette-color="primary"/><path d="M76.565 246.926l-0.97 1.402-4.291-2.969-7.647 11.051-1.582-1.095 7.646-11.051-4.291-2.969 0.97-1.402z" fill="#003f4c" data-fill-palette-color="primary"/><path d="M91.238 271.102l-1.744-0.812 4.877-10.477-8.274 5.954-1.062-0.495-0.789-10.173-4.878 10.477-1.744-0.813 6.391-13.728 1.839 0.856 0.819 11.225 9.136-6.59 1.821 0.847z" fill="#003f4c" data-fill-palette-color="primary"/><path d="M95.465 272.523l10.228-12.778 1.555 0.456 1.662 16.272-1.966-0.578-0.466-4.758-6.101-1.793-2.946 3.757zM101.17 268.019l5.318 1.562-0.647-7.482z" fill="#003f4c" data-fill-palette-color="primary"/><path d="M114.953 277.657l-1.895-0.337 2.647-14.91 6.219 1.104c0.659 0.117 1.235 0.361 1.729 0.732 0.5 0.372 0.913 0.821 1.238 1.346 0.325 0.525 0.55 1.092 0.675 1.702 0.12 0.602 0.127 1.198 0.022 1.789v0c-0.144 0.81-0.463 1.55-0.957 2.22-0.494 0.67-1.108 1.177-1.842 1.521-0.739 0.336-1.552 0.425-2.437 0.268v0l-4.449-0.79zM117.302 264.425l-1.101 6.199 4.346 0.771c0.515 0.091 0.993 0.031 1.434-0.181 0.434-0.213 0.8-0.538 1.097-0.973 0.304-0.435 0.506-0.933 0.605-1.497v0c0.105-0.59 0.072-1.141-0.099-1.653-0.171-0.512-0.435-0.938-0.793-1.277-0.357-0.34-0.78-0.553-1.267-0.64v0z" fill="#003f4c" data-fill-palette-color="primary"/><path d="M132.921 264.798l2.029 0.015 4.914 12.775 5.094-12.7 2.018 0.015-6.251 15.097-1.746-0.013z" fill="#003f4c" data-fill-palette-color="primary"/><path d="M152.843 279.665l-1.919 0.132-1.039-15.108 1.919-0.132z" fill="#003f4c" data-fill-palette-color="primary"/><path d="M166.04 264.036l-0.629 1.68c-0.204-0.172-0.462-0.325-0.773-0.458-0.305-0.141-0.645-0.256-1.02-0.345-0.374-0.088-0.776-0.147-1.204-0.176-0.434-0.022-0.875 0.003-1.323 0.075v0c-1.149 0.185-1.965 0.539-2.445 1.062-0.474 0.521-0.649 1.164-0.526 1.928v0c0.085 0.53 0.294 0.927 0.626 1.191 0.325 0.265 0.796 0.447 1.413 0.546 0.617 0.105 1.39 0.192 2.319 0.262v0c1.075 0.053 2.017 0.18 2.827 0.381 0.809 0.201 1.464 0.537 1.963 1.007 0.494 0.478 0.813 1.165 0.957 2.06v0c0.115 0.716 0.078 1.361-0.112 1.935-0.191 0.568-0.503 1.063-0.936 1.486-0.44 0.424-0.974 0.771-1.601 1.042-0.635 0.265-1.338 0.459-2.109 0.584v0c-0.764 0.123-1.52 0.164-2.269 0.122-0.749-0.049-1.469-0.173-2.157-0.372-0.697-0.205-1.365-0.497-2.006-0.874v0l0.651-1.747c0.259 0.205 0.586 0.396 0.982 0.573 0.395 0.169 0.839 0.317 1.332 0.442 0.485 0.119 1.006 0.198 1.563 0.235 0.549 0.032 1.106 0.002 1.67-0.089v0c1.067-0.172 1.862-0.498 2.385-0.978 0.53-0.481 0.735-1.093 0.615-1.837v0c-0.091-0.564-0.329-0.989-0.714-1.272-0.385-0.284-0.918-0.484-1.601-0.6-0.684-0.123-1.505-0.223-2.464-0.302v0c-1.052-0.085-1.946-0.223-2.683-0.415-0.737-0.192-1.317-0.504-1.74-0.937-0.424-0.44-0.699-1.052-0.826-1.838v0c-0.154-0.957-0.05-1.8 0.312-2.529 0.355-0.735 0.911-1.337 1.669-1.805 0.758-0.468 1.65-0.785 2.675-0.95v0c0.675-0.109 1.315-0.141 1.923-0.098 0.601 0.051 1.177 0.16 1.726 0.325 0.544 0.174 1.054 0.402 1.53 0.686z" fill="#003f4c" data-fill-palette-color="primary"/><path d="M179.53 274.52v0c-1.161 0.328-2.197 0.403-3.11 0.227-0.905-0.179-1.694-0.547-2.365-1.103-0.678-0.555-1.249-1.241-1.712-2.06-0.468-0.81-0.834-1.681-1.097-2.613v0l-2.082-7.367 1.842-0.52 2.082 7.367c0.201 0.711 0.471 1.385 0.81 2.02 0.332 0.638 0.739 1.179 1.219 1.623 0.479 0.437 1.044 0.734 1.696 0.89 0.646 0.158 1.388 0.119 2.227-0.119v0c0.845-0.239 1.504-0.599 1.977-1.08 0.466-0.479 0.787-1.034 0.965-1.663 0.175-0.636 0.242-1.311 0.2-2.024-0.049-0.711-0.172-1.415-0.369-2.113v0l-2.081-7.367 1.851-0.523 2.082 7.367c0.279 0.986 0.429 1.954 0.451 2.905 0.02 0.943-0.12 1.82-0.42 2.629-0.3 0.809-0.791 1.52-1.473 2.133-0.675 0.611-1.573 1.075-2.693 1.391z" fill="#003f4c" data-fill-palette-color="primary"/><path d="M188.992 271.375l-0.329-16.365 1.487-0.645 11.698 11.431-1.88 0.816-3.406-3.355-5.833 2.531 0.144 4.771zM190.488 264.262l5.085-2.207-5.289-5.331z" fill="#003f4c" data-fill-palette-color="primary"/><path d="M214.576 258.676l-9.009 5.125-7.487-13.163 1.672-0.951 6.645 11.681 7.336-4.173z" fill="#003f4c" data-fill-palette-color="primary"/><path d="M219.562 255.277l-1.597 1.073-8.447-12.569 1.598-1.073z" fill="#003f4c" data-fill-palette-color="primary"/><path d="M223.187 235.145l0.294 1.77c-0.263-0.047-0.562-0.05-0.899-0.011-0.335 0.03-0.687 0.1-1.055 0.211-0.368 0.111-0.745 0.26-1.131 0.449-0.387 0.198-0.756 0.44-1.108 0.726v0c-0.903 0.735-1.433 1.449-1.588 2.141-0.15 0.688 0.019 1.333 0.507 1.933v0c0.339 0.416 0.718 0.656 1.138 0.719 0.414 0.067 0.913-0.01 1.496-0.232 0.587-0.217 1.301-0.528 2.14-0.933v0c0.957-0.491 1.837-0.852 2.639-1.081 0.802-0.23 1.536-0.266 2.204-0.108 0.667 0.168 1.286 0.603 1.858 1.306v0c0.458 0.562 0.748 1.14 0.87 1.732 0.118 0.587 0.095 1.172-0.069 1.755-0.169 0.587-0.458 1.155-0.866 1.702-0.418 0.547-0.93 1.067-1.536 1.56v0c-0.6 0.488-1.235 0.901-1.904 1.239-0.673 0.332-1.359 0.584-2.055 0.755-0.706 0.17-1.431 0.252-2.174 0.245v0l-0.309-1.838c0.327 0.048 0.706 0.05 1.137 0.005 0.426-0.05 0.885-0.144 1.375-0.282 0.48-0.139 0.971-0.331 1.471-0.578 0.491-0.247 0.959-0.551 1.403-0.911v0c0.838-0.682 1.364-1.361 1.577-2.038 0.219-0.681 0.09-1.314-0.385-1.898v0c-0.361-0.443-0.779-0.692-1.254-0.746-0.475-0.054-1.037 0.04-1.686 0.28-0.654 0.235-1.415 0.558-2.286 0.969v0c-0.953 0.452-1.797 0.779-2.531 0.981-0.734 0.202-1.393 0.221-1.976 0.057-0.587-0.169-1.132-0.562-1.633-1.179v0c-0.612-0.752-0.943-1.534-0.993-2.347-0.06-0.814 0.121-1.613 0.544-2.397 0.423-0.784 1.037-1.504 1.842-2.16v0c0.53-0.431 1.069-0.78 1.617-1.045 0.547-0.256 1.099-0.449 1.658-0.581 0.558-0.121 1.114-0.178 1.668-0.17z" fill="#003f4c" data-fill-palette-color="primary"/><path d="M234.343 243.236l-6.542-15.004 1.129-1.163 15.172 6.109-1.428 1.471-4.427-1.804-4.428 4.564 1.952 4.356zM233.015 236.089l3.86-3.978-6.922-2.913z" fill="#003f4c" data-fill-palette-color="primary"/><path d="M240.677 213.079l1.341 1.053-3.223 4.105 10.57 8.299-1.188 1.513-10.57-8.299-3.223 4.105-1.341-1.053z" fill="#003f4c" data-fill-palette-color="primary"/><path d="M256.022 217.389l-1.077 1.595-12.551-8.472 1.076-1.595z" fill="#003f4c" data-fill-palette-color="primary"/><path d="M261.962 207.038v0c-0.505 0.94-1.15 1.693-1.938 2.26-0.784 0.56-1.648 0.947-2.593 1.16-0.945 0.213-1.904 0.252-2.876 0.117-0.963-0.137-1.871-0.435-2.726-0.894v0c-0.891-0.478-1.653-1.093-2.285-1.844-0.639-0.755-1.124-1.585-1.453-2.49-0.326-0.911-0.467-1.849-0.423-2.815 0.04-0.96 0.303-1.891 0.787-2.794v0c0.505-0.94 1.155-1.687 1.951-2.24 0.796-0.554 1.668-0.932 2.616-1.136 0.948-0.203 1.905-0.239 2.872-0.108 0.96 0.128 1.861 0.418 2.702 0.87v0c0.891 0.478 1.654 1.09 2.291 1.835 0.643 0.749 1.127 1.578 1.453 2.49 0.326 0.911 0.466 1.845 0.419 2.8-0.047 0.956-0.312 1.886-0.797 2.789zM252.745 207.977v0c0.676 0.363 1.389 0.604 2.14 0.722 0.748 0.125 1.477 0.116 2.186-0.025 0.7-0.139 1.346-0.413 1.938-0.823 0.592-0.41 1.073-0.959 1.442-1.648v0c0.383-0.713 0.575-1.432 0.578-2.158-0.001-0.721-0.143-1.414-0.426-2.081-0.293-0.664-0.696-1.268-1.211-1.813-0.518-0.539-1.096-0.98-1.734-1.323v0c-0.676-0.363-1.385-0.605-2.127-0.727-0.745-0.115-1.476-0.104-2.191 0.035-0.712 0.148-1.358 0.422-1.937 0.823-0.583 0.407-1.055 0.949-1.419 1.624v0c-0.386 0.719-0.582 1.437-0.587 2.154-0.009 0.723 0.133 1.417 0.426 2.081 0.283 0.666 0.679 1.271 1.188 1.812 0.505 0.548 1.083 0.997 1.734 1.347z" fill="#003f4c" data-fill-palette-color="primary"/><path d="M271.1 185.781l-14.094 4.386 10.833 4.142-0.687 1.798-14.145-5.409 0.579-1.514 14.363-4.417-11.038-4.22 0.687-1.798 14.125 5.401z" fill="#003f4c" data-fill-palette-color="primary"/><path d="M7.124 142.028c0-0.965 0.782-1.748 1.748-1.748 0.965 0 1.748 0.782 1.747 1.748 0 0.965-0.782 1.748-1.747 1.748-0.965 0-1.748-0.782-1.748-1.748z" fill="#003f4c" data-fill-palette-color="primary"/><path d="M270.674 142.028c0-0.965 0.782-1.748 1.748-1.748 0.965 0 1.748 0.782 1.747 1.748 0 0.965-0.782 1.748-1.747 1.748-0.965 0-1.748-0.782-1.748-1.748z" fill="#003f4c" data-fill-palette-color="primary"/></g></svg></g></svg></g></svg></g></svg></g><defs/></svg><rect width="280" height="280" fill="none" stroke="none" visibility="hidden"/></g></svg></g></svg>