<?xml version="1.0" encoding="UTF-8" standalone="no" ?>
<!DOCTYPE svg PUBLIC "-//W3C//DTD SVG 1.1//EN" "http://www.w3.org/Graphics/SVG/1.1/DTD/svg11.dtd">
<svg xmlns="http://www.w3.org/2000/svg" xmlns:xlink="http://www.w3.org/1999/xlink" version="1.1" width="1080" height="1080" viewBox="0 0 1080 1080" xml:space="preserve">
<desc>Created with Fabric.js 5.2.4</desc>
<defs>
</defs>
<g transform="matrix(1 0 0 1 540 540)" id="98657aeb-5676-463c-a61f-e65c62554312"  >
</g>
<g transform="matrix(1 0 0 1 540 540)" id="5d88d84b-873c-45d6-b42c-6be39a9417c9"  >
<rect style="stroke: none; stroke-width: 1; stroke-dasharray: none; stroke-linecap: butt; stroke-dashoffset: 0; stroke-linejoin: miter; stroke-miterlimit: 4; fill: rgb(255,255,255); fill-rule: nonzero; opacity: 1; visibility: hidden;" vector-effect="non-scaling-stroke"  x="-540" y="-540" rx="0" ry="0" width="1080" height="1080" />
</g>
<g transform="matrix(1 0 0 1 626.06 572.06)"  >
<rect style="stroke: none; stroke-width: 1; stroke-dasharray: none; stroke-linecap: butt; stroke-dashoffset: 0; stroke-linejoin: miter; stroke-miterlimit: 4; fill: rgb(255,255,255); fill-rule: nonzero; opacity: 1; visibility: hidden;" vector-effect="non-scaling-stroke"  x="-540" y="-540" rx="0" ry="0" width="1080" height="1080" />
</g>
<g transform="matrix(6.13 0 0 6.08 540 540)"  >
<circle style="stroke: none; stroke-width: 1; stroke-dasharray: none; stroke-linecap: butt; stroke-dashoffset: 0; stroke-linejoin: miter; stroke-miterlimit: 4; fill: rgb(0,63,76); fill-rule: nonzero; opacity: 1;" vector-effect="non-scaling-stroke"  cx="0" cy="0" r="82" />
</g>
<g transform="matrix(7.3 0 0 7.3 539.1 524.9)"  >
<path style="stroke: none; stroke-width: 1; stroke-dasharray: none; stroke-linecap: butt; stroke-dashoffset: 0; stroke-linejoin: miter; stroke-miterlimit: 4; fill: rgb(255,255,255); fill-rule: nonzero; opacity: 1;" vector-effect="non-scaling-stroke"  transform=" translate(-50.53, -49.85)" d="M 65.07 28.772 L 54.181 33.282 L 54.181 24.830999999999996 C 58.346999999999994 23.985999999999997 61.486 20.301999999999996 61.486 15.885999999999996 C 61.486 10.843999999999996 57.397999999999996 6.756999999999996 52.357 6.756999999999996 C 47.315 6.756999999999996 43.228 10.843999999999996 43.228 15.885999999999996 C 43.228 20.301999999999996 46.364000000000004 23.984999999999996 50.531 24.830999999999996 L 50.531 34.794 L 36.02 40.806 L 6.713 28.666 L 6.713 80.708 L 36.02 92.851 L 65.07000000000001 80.815 L 94.35 92.943 L 94.35 40.9 L 65.07 28.772 z M 46.88 15.886 C 46.88 12.860999999999999 49.333000000000006 10.408 52.358000000000004 10.408 C 55.38100000000001 10.408 57.83500000000001 12.860999999999999 57.83500000000001 15.886 C 57.83500000000001 18.91 55.382000000000005 21.363 52.358000000000004 21.363 C 49.333 21.363 46.88 18.91 46.88 15.886 z M 90.699 87.479 L 65.07 76.861 L 36.02 88.897 L 10.364 78.271 L 10.364 34.13 L 36.019000000000005 44.757000000000005 L 50.531000000000006 38.746 L 50.531000000000006 54.225 L 54.181000000000004 54.225 L 54.181000000000004 37.234 L 65.07000000000001 32.724000000000004 L 90.69900000000001 43.34100000000001 L 90.69900000000001 87.479 z" stroke-linecap="round" />
</g>
<g transform="matrix(7.3 0 0 7.3 432.81 667.74)"  >
<polygon style="stroke: none; stroke-width: 1; stroke-dasharray: none; stroke-linecap: butt; stroke-dashoffset: 0; stroke-linejoin: miter; stroke-miterlimit: 4; fill: rgb(255,255,255); fill-rule: nonzero; opacity: 1;" vector-effect="non-scaling-stroke"  points="-1.83,-16.83 -1.83,16.04 0.09,16.83 1.83,16.11 1.83,-16.75 0.09,-16.03 " />
</g>
<g transform="matrix(7.3 0 0 7.3 646.35 587.64)"  >
<polygon style="stroke: none; stroke-width: 1; stroke-dasharray: none; stroke-linecap: butt; stroke-dashoffset: 0; stroke-linejoin: miter; stroke-miterlimit: 4; fill: rgb(255,255,255); fill-rule: nonzero; opacity: 1;" vector-effect="non-scaling-stroke"  points="-1.83,-16.11 -1.83,16.75 -0.09,16.03 1.82,16.83 1.82,-16.03 -0.09,-16.83 " />
</g>
</svg>